<?xml version="1.0" encoding="utf-8" standalone="no"?>
<!DOCTYPE svg PUBLIC "-//W3C//DTD SVG 1.1//EN"
  "http://www.w3.org/Graphics/SVG/1.1/DTD/svg11.dtd">
<svg xmlns:xlink="http://www.w3.org/1999/xlink" width="999.89925pt" height="371.27625pt" viewBox="0 0 999.89925 371.27625" xmlns="http://www.w3.org/2000/svg" version="1.1">
 <metadata>
  <rdf:RDF xmlns:dc="http://purl.org/dc/elements/1.1/" xmlns:cc="http://creativecommons.org/ns#" xmlns:rdf="http://www.w3.org/1999/02/22-rdf-syntax-ns#">
   <cc:Work>
    <dc:type rdf:resource="http://purl.org/dc/dcmitype/StillImage"/>
    <dc:date>2026-04-25T18:30:09.275111</dc:date>
    <dc:format>image/svg+xml</dc:format>
    <dc:creator>
     <cc:Agent>
      <dc:title>Matplotlib v3.10.8, https://matplotlib.org/</dc:title>
     </cc:Agent>
    </dc:creator>
   </cc:Work>
  </rdf:RDF>
 </metadata>
 <defs>
  <style type="text/css">*{stroke-linejoin: round; stroke-linecap: butt}</style>
 </defs>
 <g id="figure_1">
  <g id="patch_1">
   <path d="M 0 371.27625 
L 999.89925 371.27625 
L 999.89925 0 
L 0 0 
z
" style="fill: #ffffff"/>
  </g>
  <g id="axes_1">
   <g id="patch_2">
    <path d="M 41.53925 347.12 
L 495.35925 347.12 
L 495.35925 62.7675 
L 41.53925 62.7675 
z
" style="fill: #ffffff"/>
   </g>
   <g id="patch_3">
    <path d="M 62.167432 347.12 
L 245.529048 347.12 
L 245.529048 199.429617 
L 62.167432 199.429617 
z
" clip-path="url(#pda834a1a05)" style="fill: #e69f00; opacity: 0.85; stroke: #000000; stroke-width: 0.5; stroke-linejoin: miter"/>
   </g>
   <g id="patch_4">
    <path d="M 291.369452 347.12 
L 474.731068 347.12 
L 474.731068 251.014889 
L 291.369452 251.014889 
z
" clip-path="url(#pda834a1a05)" style="fill: #d55e00; opacity: 0.85; stroke: #000000; stroke-width: 0.5; stroke-linejoin: miter"/>
   </g>
   <g id="matplotlib.axis_1">
    <g id="xtick_1">
     <g id="line2d_1">
      <path d="M 153.84824 347.12 
L 153.84824 62.7675 
" clip-path="url(#pda834a1a05)" style="fill: none; stroke: #b0b0b0; stroke-opacity: 0.3; stroke-width: 0.8; stroke-linecap: square"/>
     </g>
     <g id="line2d_2">
      <defs>
       <path id="m404b58478f" d="M 0 0 
L 0 3.5 
" style="stroke: #000000; stroke-width: 0.8"/>
      </defs>
      <g>
       <use xlink:href="#m404b58478f" x="153.84824" y="347.12" style="stroke: #000000; stroke-width: 0.8"/>
      </g>
     </g>
     <g id="text_1">
      <!-- Discretization -->
      <g transform="translate(125.53949 362.29875) scale(0.08 -0.08)">
       <defs>
        <path id="DejaVuSerif-44" d="M 1581 331 
L 2163 331 
Q 3072 331 3558 850 
Q 4044 1369 4044 2338 
Q 4044 3306 3559 3818 
Q 3075 4331 2163 4331 
L 1581 4331 
L 1581 331 
z
M 353 0 
L 353 331 
L 947 331 
L 947 4331 
L 353 4331 
L 353 4666 
L 2209 4666 
Q 3416 4666 4089 4050 
Q 4763 3434 4763 2338 
Q 4763 1238 4088 619 
Q 3413 0 2209 0 
L 353 0 
z
" transform="scale(0.015625)"/>
        <path id="DejaVuSerif-69" d="M 622 4353 
Q 622 4497 726 4603 
Q 831 4709 978 4709 
Q 1122 4709 1226 4603 
Q 1331 4497 1331 4353 
Q 1331 4206 1228 4103 
Q 1125 4000 978 4000 
Q 831 4000 726 4103 
Q 622 4206 622 4353 
z
M 1356 331 
L 1900 331 
L 1900 0 
L 231 0 
L 231 331 
L 781 331 
L 781 2988 
L 231 2988 
L 231 3322 
L 1356 3322 
L 1356 331 
z
" transform="scale(0.015625)"/>
        <path id="DejaVuSerif-73" d="M 359 184 
L 359 959 
L 691 959 
Q 703 588 923 403 
Q 1144 219 1575 219 
Q 1963 219 2166 364 
Q 2369 509 2369 788 
Q 2369 1006 2220 1140 
Q 2072 1275 1594 1428 
L 1178 1569 
Q 750 1706 558 1912 
Q 366 2119 366 2438 
Q 366 2894 700 3153 
Q 1034 3413 1625 3413 
Q 1888 3413 2178 3344 
Q 2469 3275 2778 3144 
L 2778 2419 
L 2447 2419 
Q 2434 2741 2221 2922 
Q 2009 3103 1644 3103 
Q 1281 3103 1095 2975 
Q 909 2847 909 2591 
Q 909 2381 1050 2254 
Q 1191 2128 1613 1997 
L 2069 1856 
Q 2541 1709 2748 1489 
Q 2956 1269 2956 922 
Q 2956 450 2595 179 
Q 2234 -91 1600 -91 
Q 1278 -91 972 -22 
Q 666 47 359 184 
z
" transform="scale(0.015625)"/>
        <path id="DejaVuSerif-63" d="M 3291 997 
Q 3169 466 2822 187 
Q 2475 -91 1925 -91 
Q 1200 -91 759 389 
Q 319 869 319 1663 
Q 319 2459 759 2936 
Q 1200 3413 1925 3413 
Q 2241 3413 2553 3339 
Q 2866 3266 3181 3116 
L 3181 2266 
L 2847 2266 
Q 2781 2703 2561 2903 
Q 2341 3103 1931 3103 
Q 1466 3103 1228 2742 
Q 991 2381 991 1663 
Q 991 944 1227 581 
Q 1463 219 1931 219 
Q 2303 219 2525 412 
Q 2747 606 2828 997 
L 3291 997 
z
" transform="scale(0.015625)"/>
        <path id="DejaVuSerif-72" d="M 3059 3328 
L 3059 2497 
L 2728 2497 
Q 2713 2744 2591 2866 
Q 2469 2988 2234 2988 
Q 1809 2988 1582 2694 
Q 1356 2400 1356 1850 
L 1356 331 
L 2022 331 
L 2022 0 
L 263 0 
L 263 331 
L 781 331 
L 781 2994 
L 231 2994 
L 231 3322 
L 1356 3322 
L 1356 2731 
Q 1525 3078 1790 3245 
Q 2056 3413 2438 3413 
Q 2578 3413 2733 3391 
Q 2888 3369 3059 3328 
z
" transform="scale(0.015625)"/>
        <path id="DejaVuSerif-65" d="M 3469 1600 
L 991 1600 
L 991 1575 
Q 991 903 1244 561 
Q 1497 219 1991 219 
Q 2369 219 2611 417 
Q 2853 616 2950 1006 
L 3413 1006 
Q 3275 459 2904 184 
Q 2534 -91 1931 -91 
Q 1203 -91 761 389 
Q 319 869 319 1663 
Q 319 2450 753 2931 
Q 1188 3413 1894 3413 
Q 2647 3413 3050 2948 
Q 3453 2484 3469 1600 
z
M 2791 1931 
Q 2772 2513 2545 2808 
Q 2319 3103 1894 3103 
Q 1497 3103 1269 2806 
Q 1041 2509 991 1931 
L 2791 1931 
z
" transform="scale(0.015625)"/>
        <path id="DejaVuSerif-74" d="M 691 2988 
L 184 2988 
L 184 3322 
L 691 3322 
L 691 4353 
L 1269 4353 
L 1269 3322 
L 2350 3322 
L 2350 2988 
L 1269 2988 
L 1269 878 
Q 1269 456 1350 337 
Q 1431 219 1650 219 
Q 1875 219 1978 351 
Q 2081 484 2088 781 
L 2522 781 
Q 2497 328 2275 118 
Q 2053 -91 1600 -91 
Q 1103 -91 897 129 
Q 691 350 691 878 
L 691 2988 
z
" transform="scale(0.015625)"/>
        <path id="DejaVuSerif-7a" d="M 256 0 
L 256 269 
L 2338 2988 
L 691 2988 
L 691 2413 
L 359 2413 
L 359 3322 
L 3078 3322 
L 3078 3053 
L 997 331 
L 2803 331 
L 2803 934 
L 3138 934 
L 3138 0 
L 256 0 
z
" transform="scale(0.015625)"/>
        <path id="DejaVuSerif-61" d="M 2547 1044 
L 2547 1747 
L 1806 1747 
Q 1378 1747 1168 1562 
Q 959 1378 959 997 
Q 959 650 1171 447 
Q 1384 244 1747 244 
Q 2106 244 2326 466 
Q 2547 688 2547 1044 
z
M 3122 2075 
L 3122 331 
L 3634 331 
L 3634 0 
L 2547 0 
L 2547 359 
Q 2356 128 2106 18 
Q 1856 -91 1522 -91 
Q 969 -91 644 203 
Q 319 497 319 997 
Q 319 1513 691 1797 
Q 1063 2081 1741 2081 
L 2547 2081 
L 2547 2309 
Q 2547 2688 2317 2895 
Q 2088 3103 1672 3103 
Q 1328 3103 1125 2947 
Q 922 2791 872 2484 
L 575 2484 
L 575 3156 
Q 875 3284 1158 3348 
Q 1441 3413 1709 3413 
Q 2400 3413 2761 3070 
Q 3122 2728 3122 2075 
z
" transform="scale(0.015625)"/>
        <path id="DejaVuSerif-6f" d="M 1925 219 
Q 2388 219 2623 584 
Q 2859 950 2859 1663 
Q 2859 2375 2623 2739 
Q 2388 3103 1925 3103 
Q 1463 3103 1227 2739 
Q 991 2375 991 1663 
Q 991 950 1228 584 
Q 1466 219 1925 219 
z
M 1925 -91 
Q 1200 -91 759 389 
Q 319 869 319 1663 
Q 319 2456 758 2934 
Q 1197 3413 1925 3413 
Q 2653 3413 3092 2934 
Q 3531 2456 3531 1663 
Q 3531 869 3092 389 
Q 2653 -91 1925 -91 
z
" transform="scale(0.015625)"/>
        <path id="DejaVuSerif-6e" d="M 263 0 
L 263 331 
L 781 331 
L 781 2988 
L 231 2988 
L 231 3322 
L 1356 3322 
L 1356 2731 
Q 1516 3069 1770 3241 
Q 2025 3413 2363 3413 
Q 2913 3413 3172 3097 
Q 3431 2781 3431 2113 
L 3431 331 
L 3944 331 
L 3944 0 
L 2356 0 
L 2356 331 
L 2853 331 
L 2853 1931 
Q 2853 2541 2703 2767 
Q 2553 2994 2175 2994 
Q 1775 2994 1565 2701 
Q 1356 2409 1356 1850 
L 1356 331 
L 1856 331 
L 1856 0 
L 263 0 
z
" transform="scale(0.015625)"/>
       </defs>
       <use xlink:href="#DejaVuSerif-44"/>
       <use xlink:href="#DejaVuSerif-69" transform="translate(80.175781 0)"/>
       <use xlink:href="#DejaVuSerif-73" transform="translate(112.158203 0)"/>
       <use xlink:href="#DejaVuSerif-63" transform="translate(163.476562 0)"/>
       <use xlink:href="#DejaVuSerif-72" transform="translate(219.482422 0)"/>
       <use xlink:href="#DejaVuSerif-65" transform="translate(267.285156 0)"/>
       <use xlink:href="#DejaVuSerif-74" transform="translate(326.464844 0)"/>
       <use xlink:href="#DejaVuSerif-69" transform="translate(366.650391 0)"/>
       <use xlink:href="#DejaVuSerif-7a" transform="translate(398.632812 0)"/>
       <use xlink:href="#DejaVuSerif-61" transform="translate(451.318359 0)"/>
       <use xlink:href="#DejaVuSerif-74" transform="translate(510.9375 0)"/>
       <use xlink:href="#DejaVuSerif-69" transform="translate(551.123047 0)"/>
       <use xlink:href="#DejaVuSerif-6f" transform="translate(583.105469 0)"/>
       <use xlink:href="#DejaVuSerif-6e" transform="translate(643.310547 0)"/>
      </g>
     </g>
    </g>
    <g id="xtick_2">
     <g id="line2d_3">
      <path d="M 383.05026 347.12 
L 383.05026 62.7675 
" clip-path="url(#pda834a1a05)" style="fill: none; stroke: #b0b0b0; stroke-opacity: 0.3; stroke-width: 0.8; stroke-linecap: square"/>
     </g>
     <g id="line2d_4">
      <g>
       <use xlink:href="#m404b58478f" x="383.05026" y="347.12" style="stroke: #000000; stroke-width: 0.8"/>
      </g>
     </g>
     <g id="text_2">
      <!-- HMM -->
      <g transform="translate(371.370885 362.29875) scale(0.08 -0.08)">
       <defs>
        <path id="DejaVuSerif-48" d="M 353 0 
L 353 331 
L 947 331 
L 947 4331 
L 353 4331 
L 353 4666 
L 2175 4666 
L 2175 4331 
L 1581 4331 
L 1581 2719 
L 4000 2719 
L 4000 4331 
L 3406 4331 
L 3406 4666 
L 5228 4666 
L 5228 4331 
L 4634 4331 
L 4634 331 
L 5228 331 
L 5228 0 
L 3406 0 
L 3406 331 
L 4000 331 
L 4000 2338 
L 1581 2338 
L 1581 331 
L 2175 331 
L 2175 0 
L 353 0 
z
" transform="scale(0.015625)"/>
        <path id="DejaVuSerif-4d" d="M 353 0 
L 353 331 
L 947 331 
L 947 4331 
L 319 4331 
L 319 4666 
L 1678 4666 
L 3316 1344 
L 4953 4666 
L 6228 4666 
L 6228 4331 
L 5606 4331 
L 5606 331 
L 6203 331 
L 6203 0 
L 4378 0 
L 4378 331 
L 4972 331 
L 4972 3938 
L 3372 684 
L 2931 684 
L 1331 3938 
L 1331 331 
L 1925 331 
L 1925 0 
L 353 0 
z
" transform="scale(0.015625)"/>
       </defs>
       <use xlink:href="#DejaVuSerif-48"/>
       <use xlink:href="#DejaVuSerif-4d" transform="translate(87.207031 0)"/>
       <use xlink:href="#DejaVuSerif-4d" transform="translate(189.599609 0)"/>
      </g>
     </g>
    </g>
   </g>
   <g id="matplotlib.axis_2">
    <g id="ytick_1">
     <g id="line2d_5">
      <path d="M 41.53925 347.12 
L 495.35925 347.12 
" clip-path="url(#pda834a1a05)" style="fill: none; stroke: #b0b0b0; stroke-opacity: 0.3; stroke-width: 0.8; stroke-linecap: square"/>
     </g>
     <g id="line2d_6">
      <defs>
       <path id="mce6910f501" d="M 0 0 
L -3.5 0 
" style="stroke: #000000; stroke-width: 0.8"/>
      </defs>
      <g>
       <use xlink:href="#mce6910f501" x="41.53925" y="347.12" style="stroke: #000000; stroke-width: 0.8"/>
      </g>
     </g>
     <g id="text_3">
      <!-- 0.0 -->
      <g transform="translate(19.71675 350.159375) scale(0.08 -0.08)">
       <defs>
        <path id="DejaVuSerif-30" d="M 2034 219 
Q 2513 219 2750 744 
Q 2988 1269 2988 2328 
Q 2988 3391 2750 3916 
Q 2513 4441 2034 4441 
Q 1556 4441 1318 3916 
Q 1081 3391 1081 2328 
Q 1081 1269 1318 744 
Q 1556 219 2034 219 
z
M 2034 -91 
Q 1275 -91 848 546 
Q 422 1184 422 2328 
Q 422 3475 848 4112 
Q 1275 4750 2034 4750 
Q 2797 4750 3222 4112 
Q 3647 3475 3647 2328 
Q 3647 1184 3222 546 
Q 2797 -91 2034 -91 
z
" transform="scale(0.015625)"/>
        <path id="DejaVuSerif-2e" d="M 603 325 
Q 603 500 722 622 
Q 841 744 1019 744 
Q 1191 744 1312 622 
Q 1434 500 1434 325 
Q 1434 153 1312 31 
Q 1191 -91 1019 -91 
Q 841 -91 722 29 
Q 603 150 603 325 
z
" transform="scale(0.015625)"/>
       </defs>
       <use xlink:href="#DejaVuSerif-30"/>
       <use xlink:href="#DejaVuSerif-2e" transform="translate(63.623047 0)"/>
       <use xlink:href="#DejaVuSerif-30" transform="translate(95.410156 0)"/>
      </g>
     </g>
    </g>
    <g id="ytick_2">
     <g id="line2d_7">
      <path d="M 41.53925 290.2495 
L 495.35925 290.2495 
" clip-path="url(#pda834a1a05)" style="fill: none; stroke: #b0b0b0; stroke-opacity: 0.3; stroke-width: 0.8; stroke-linecap: square"/>
     </g>
     <g id="line2d_8">
      <g>
       <use xlink:href="#mce6910f501" x="41.53925" y="290.2495" style="stroke: #000000; stroke-width: 0.8"/>
      </g>
     </g>
     <g id="text_4">
      <!-- 0.2 -->
      <g transform="translate(19.71675 293.288875) scale(0.08 -0.08)">
       <defs>
        <path id="DejaVuSerif-32" d="M 819 3553 
L 469 3553 
L 469 4384 
Q 803 4563 1142 4656 
Q 1481 4750 1806 4750 
Q 2534 4750 2956 4397 
Q 3378 4044 3378 3438 
Q 3378 2753 2422 1800 
Q 2347 1728 2309 1691 
L 1131 513 
L 3078 513 
L 3078 1088 
L 3444 1088 
L 3444 0 
L 434 0 
L 434 341 
L 1850 1753 
Q 2319 2222 2519 2614 
Q 2719 3006 2719 3438 
Q 2719 3909 2473 4175 
Q 2228 4441 1797 4441 
Q 1350 4441 1106 4219 
Q 863 3997 819 3553 
z
" transform="scale(0.015625)"/>
       </defs>
       <use xlink:href="#DejaVuSerif-30"/>
       <use xlink:href="#DejaVuSerif-2e" transform="translate(63.623047 0)"/>
       <use xlink:href="#DejaVuSerif-32" transform="translate(95.410156 0)"/>
      </g>
     </g>
    </g>
    <g id="ytick_3">
     <g id="line2d_9">
      <path d="M 41.53925 233.379 
L 495.35925 233.379 
" clip-path="url(#pda834a1a05)" style="fill: none; stroke: #b0b0b0; stroke-opacity: 0.3; stroke-width: 0.8; stroke-linecap: square"/>
     </g>
     <g id="line2d_10">
      <g>
       <use xlink:href="#mce6910f501" x="41.53925" y="233.379" style="stroke: #000000; stroke-width: 0.8"/>
      </g>
     </g>
     <g id="text_5">
      <!-- 0.4 -->
      <g transform="translate(19.71675 236.418375) scale(0.08 -0.08)">
       <defs>
        <path id="DejaVuSerif-34" d="M 2234 1581 
L 2234 4063 
L 641 1581 
L 2234 1581 
z
M 3609 0 
L 1484 0 
L 1484 331 
L 2234 331 
L 2234 1247 
L 197 1247 
L 197 1588 
L 2241 4750 
L 2859 4750 
L 2859 1581 
L 3750 1581 
L 3750 1247 
L 2859 1247 
L 2859 331 
L 3609 331 
L 3609 0 
z
" transform="scale(0.015625)"/>
       </defs>
       <use xlink:href="#DejaVuSerif-30"/>
       <use xlink:href="#DejaVuSerif-2e" transform="translate(63.623047 0)"/>
       <use xlink:href="#DejaVuSerif-34" transform="translate(95.410156 0)"/>
      </g>
     </g>
    </g>
    <g id="ytick_4">
     <g id="line2d_11">
      <path d="M 41.53925 176.5085 
L 495.35925 176.5085 
" clip-path="url(#pda834a1a05)" style="fill: none; stroke: #b0b0b0; stroke-opacity: 0.3; stroke-width: 0.8; stroke-linecap: square"/>
     </g>
     <g id="line2d_12">
      <g>
       <use xlink:href="#mce6910f501" x="41.53925" y="176.5085" style="stroke: #000000; stroke-width: 0.8"/>
      </g>
     </g>
     <g id="text_6">
      <!-- 0.6 -->
      <g transform="translate(19.71675 179.547875) scale(0.08 -0.08)">
       <defs>
        <path id="DejaVuSerif-36" d="M 2094 219 
Q 2534 219 2771 542 
Q 3009 866 3009 1472 
Q 3009 2078 2771 2401 
Q 2534 2725 2094 2725 
Q 1647 2725 1412 2412 
Q 1178 2100 1178 1509 
Q 1178 888 1415 553 
Q 1653 219 2094 219 
z
M 1075 2569 
Q 1288 2803 1556 2918 
Q 1825 3034 2163 3034 
Q 2859 3034 3264 2615 
Q 3669 2197 3669 1472 
Q 3669 763 3233 336 
Q 2797 -91 2069 -91 
Q 1278 -91 853 498 
Q 428 1088 428 2181 
Q 428 3406 931 4078 
Q 1434 4750 2350 4750 
Q 2597 4750 2869 4703 
Q 3141 4656 3425 4563 
L 3425 3794 
L 3072 3794 
Q 3034 4109 2831 4275 
Q 2628 4441 2284 4441 
Q 1678 4441 1381 3981 
Q 1084 3522 1075 2569 
z
" transform="scale(0.015625)"/>
       </defs>
       <use xlink:href="#DejaVuSerif-30"/>
       <use xlink:href="#DejaVuSerif-2e" transform="translate(63.623047 0)"/>
       <use xlink:href="#DejaVuSerif-36" transform="translate(95.410156 0)"/>
      </g>
     </g>
    </g>
    <g id="ytick_5">
     <g id="line2d_13">
      <path d="M 41.53925 119.638 
L 495.35925 119.638 
" clip-path="url(#pda834a1a05)" style="fill: none; stroke: #b0b0b0; stroke-opacity: 0.3; stroke-width: 0.8; stroke-linecap: square"/>
     </g>
     <g id="line2d_14">
      <g>
       <use xlink:href="#mce6910f501" x="41.53925" y="119.638" style="stroke: #000000; stroke-width: 0.8"/>
      </g>
     </g>
     <g id="text_7">
      <!-- 0.8 -->
      <g transform="translate(19.71675 122.677375) scale(0.08 -0.08)">
       <defs>
        <path id="DejaVuSerif-38" d="M 2981 1275 
Q 2981 1775 2732 2051 
Q 2484 2328 2034 2328 
Q 1584 2328 1336 2051 
Q 1088 1775 1088 1275 
Q 1088 772 1336 495 
Q 1584 219 2034 219 
Q 2484 219 2732 495 
Q 2981 772 2981 1275 
z
M 2853 3541 
Q 2853 3966 2637 4203 
Q 2422 4441 2034 4441 
Q 1650 4441 1433 4203 
Q 1216 3966 1216 3541 
Q 1216 3113 1433 2875 
Q 1650 2638 2034 2638 
Q 2422 2638 2637 2875 
Q 2853 3113 2853 3541 
z
M 2516 2484 
Q 3047 2413 3344 2092 
Q 3641 1772 3641 1275 
Q 3641 619 3225 264 
Q 2809 -91 2034 -91 
Q 1263 -91 845 264 
Q 428 619 428 1275 
Q 428 1772 725 2092 
Q 1022 2413 1556 2484 
Q 1084 2569 832 2842 
Q 581 3116 581 3541 
Q 581 4103 968 4426 
Q 1356 4750 2034 4750 
Q 2713 4750 3100 4426 
Q 3488 4103 3488 3541 
Q 3488 3116 3236 2842 
Q 2984 2569 2516 2484 
z
" transform="scale(0.015625)"/>
       </defs>
       <use xlink:href="#DejaVuSerif-30"/>
       <use xlink:href="#DejaVuSerif-2e" transform="translate(63.623047 0)"/>
       <use xlink:href="#DejaVuSerif-38" transform="translate(95.410156 0)"/>
      </g>
     </g>
    </g>
    <g id="ytick_6">
     <g id="line2d_15">
      <path d="M 41.53925 62.7675 
L 495.35925 62.7675 
" clip-path="url(#pda834a1a05)" style="fill: none; stroke: #b0b0b0; stroke-opacity: 0.3; stroke-width: 0.8; stroke-linecap: square"/>
     </g>
     <g id="line2d_16">
      <g>
       <use xlink:href="#mce6910f501" x="41.53925" y="62.7675" style="stroke: #000000; stroke-width: 0.8"/>
      </g>
     </g>
     <g id="text_8">
      <!-- 1.0 -->
      <g transform="translate(19.71675 65.806875) scale(0.08 -0.08)">
       <defs>
        <path id="DejaVuSerif-31" d="M 909 0 
L 909 331 
L 1722 331 
L 1722 4213 
L 781 3603 
L 781 4013 
L 1919 4750 
L 2350 4750 
L 2350 331 
L 3163 331 
L 3163 0 
L 909 0 
z
" transform="scale(0.015625)"/>
       </defs>
       <use xlink:href="#DejaVuSerif-31"/>
       <use xlink:href="#DejaVuSerif-2e" transform="translate(63.623047 0)"/>
       <use xlink:href="#DejaVuSerif-30" transform="translate(95.410156 0)"/>
      </g>
     </g>
    </g>
    <g id="text_9">
     <!-- Distance -->
     <g transform="translate(13.886625 224.43025) rotate(-90) scale(0.088 -0.088)">
      <use xlink:href="#DejaVuSerif-44"/>
      <use xlink:href="#DejaVuSerif-69" transform="translate(80.175781 0)"/>
      <use xlink:href="#DejaVuSerif-73" transform="translate(112.158203 0)"/>
      <use xlink:href="#DejaVuSerif-74" transform="translate(163.476562 0)"/>
      <use xlink:href="#DejaVuSerif-61" transform="translate(203.662109 0)"/>
      <use xlink:href="#DejaVuSerif-6e" transform="translate(263.28125 0)"/>
      <use xlink:href="#DejaVuSerif-63" transform="translate(327.685547 0)"/>
      <use xlink:href="#DejaVuSerif-65" transform="translate(383.691406 0)"/>
     </g>
    </g>
   </g>
   <g id="LineCollection_1">
    <path d="M 153.84824 202.288456 
L 153.84824 196.570778 
" clip-path="url(#pda834a1a05)" style="fill: none; stroke: #000000; stroke-width: 1.4"/>
    <path d="M 383.05026 295.708337 
L 383.05026 206.32144 
" clip-path="url(#pda834a1a05)" style="fill: none; stroke: #000000; stroke-width: 1.4"/>
   </g>
   <g id="line2d_17">
    <defs>
     <path id="m63418017d3" d="M 4 0 
L -4 -0 
"/>
    </defs>
    <g clip-path="url(#pda834a1a05)">
     <use xlink:href="#m63418017d3" x="153.84824" y="202.288456" style="fill: #1f77b4"/>
     <use xlink:href="#m63418017d3" x="383.05026" y="295.708337" style="fill: #1f77b4"/>
    </g>
   </g>
   <g id="line2d_18">
    <g clip-path="url(#pda834a1a05)">
     <use xlink:href="#m63418017d3" x="153.84824" y="196.570778" style="fill: #1f77b4"/>
     <use xlink:href="#m63418017d3" x="383.05026" y="206.32144" style="fill: #1f77b4"/>
    </g>
   </g>
   <g id="patch_5">
    <path d="M 41.53925 347.12 
L 41.53925 62.7675 
" style="fill: none; stroke: #000000; stroke-width: 0.8; stroke-linejoin: miter; stroke-linecap: square"/>
   </g>
   <g id="patch_6">
    <path d="M 495.35925 347.12 
L 495.35925 62.7675 
" style="fill: none; stroke: #000000; stroke-width: 0.8; stroke-linejoin: miter; stroke-linecap: square"/>
   </g>
   <g id="patch_7">
    <path d="M 41.53925 347.12 
L 495.35925 347.12 
" style="fill: none; stroke: #000000; stroke-width: 0.8; stroke-linejoin: miter; stroke-linecap: square"/>
   </g>
   <g id="patch_8">
    <path d="M 41.53925 62.7675 
L 495.35925 62.7675 
" style="fill: none; stroke: #000000; stroke-width: 0.8; stroke-linejoin: miter; stroke-linecap: square"/>
   </g>
   <g id="text_10">
    <!-- 0.519 -->
    <g transform="translate(139.534177 188.80404) scale(0.1 -0.1)">
     <defs>
      <path id="DejaVuSerif-35" d="M 3219 4666 
L 3219 4153 
L 1081 4153 
L 1081 2816 
Q 1244 2928 1461 2984 
Q 1678 3041 1947 3041 
Q 2703 3041 3140 2622 
Q 3578 2203 3578 1478 
Q 3578 738 3136 323 
Q 2694 -91 1894 -91 
Q 1572 -91 1234 -12 
Q 897 66 544 225 
L 544 1131 
L 897 1131 
Q 925 688 1179 453 
Q 1434 219 1894 219 
Q 2388 219 2653 544 
Q 2919 869 2919 1478 
Q 2919 2084 2655 2407 
Q 2391 2731 1894 2731 
Q 1613 2731 1398 2631 
Q 1184 2531 1019 2322 
L 750 2322 
L 750 4666 
L 3219 4666 
z
" transform="scale(0.015625)"/>
      <path id="DejaVuSerif-39" d="M 2994 2091 
Q 2784 1856 2512 1740 
Q 2241 1625 1900 1625 
Q 1206 1625 804 2044 
Q 403 2463 403 3188 
Q 403 3897 839 4323 
Q 1275 4750 2003 4750 
Q 2794 4750 3217 4161 
Q 3641 3572 3641 2478 
Q 3641 1253 3137 581 
Q 2634 -91 1722 -91 
Q 1475 -91 1203 -44 
Q 931 3 647 97 
L 647 872 
L 997 872 
Q 1038 556 1241 387 
Q 1444 219 1784 219 
Q 2391 219 2687 676 
Q 2984 1134 2994 2091 
z
M 1978 4441 
Q 1534 4441 1298 4117 
Q 1063 3794 1063 3188 
Q 1063 2581 1298 2256 
Q 1534 1931 1978 1931 
Q 2422 1931 2658 2245 
Q 2894 2559 2894 3150 
Q 2894 3772 2656 4106 
Q 2419 4441 1978 4441 
z
" transform="scale(0.015625)"/>
     </defs>
     <use xlink:href="#DejaVuSerif-30"/>
     <use xlink:href="#DejaVuSerif-2e" transform="translate(63.623047 0)"/>
     <use xlink:href="#DejaVuSerif-35" transform="translate(95.410156 0)"/>
     <use xlink:href="#DejaVuSerif-31" transform="translate(159.033203 0)"/>
     <use xlink:href="#DejaVuSerif-39" transform="translate(222.65625 0)"/>
    </g>
   </g>
   <g id="text_11">
    <!-- 0.338 -->
    <g transform="translate(368.736198 198.554702) scale(0.1 -0.1)">
     <defs>
      <path id="DejaVuSerif-33" d="M 622 4469 
Q 988 4606 1323 4678 
Q 1659 4750 1953 4750 
Q 2638 4750 3022 4454 
Q 3406 4159 3406 3634 
Q 3406 3213 3140 2930 
Q 2875 2647 2388 2547 
Q 2963 2466 3280 2130 
Q 3597 1794 3597 1259 
Q 3597 606 3158 257 
Q 2719 -91 1894 -91 
Q 1528 -91 1179 -12 
Q 831 66 488 225 
L 488 1131 
L 838 1131 
Q 869 681 1141 450 
Q 1413 219 1906 219 
Q 2384 219 2661 495 
Q 2938 772 2938 1253 
Q 2938 1803 2653 2086 
Q 2369 2369 1819 2369 
L 1522 2369 
L 1522 2688 
L 1678 2688 
Q 2225 2688 2498 2914 
Q 2772 3141 2772 3597 
Q 2772 4006 2547 4223 
Q 2322 4441 1900 4441 
Q 1478 4441 1245 4241 
Q 1013 4041 972 3647 
L 622 3647 
L 622 4469 
z
" transform="scale(0.015625)"/>
     </defs>
     <use xlink:href="#DejaVuSerif-30"/>
     <use xlink:href="#DejaVuSerif-2e" transform="translate(63.623047 0)"/>
     <use xlink:href="#DejaVuSerif-33" transform="translate(95.410156 0)"/>
     <use xlink:href="#DejaVuSerif-33" transform="translate(159.033203 0)"/>
     <use xlink:href="#DejaVuSerif-38" transform="translate(222.65625 0)"/>
    </g>
   </g>
   <g id="text_12">
    <!-- Normalized edit distance (discrete techniques) -->
    <g transform="translate(123.273313 56.7675) scale(0.11 -0.11)">
     <defs>
      <path id="DejaVuSerif-Bold-4e" d="M 281 0 
L 281 378 
L 878 378 
L 878 4288 
L 281 4288 
L 281 4666 
L 1741 4666 
L 4556 1363 
L 4556 4288 
L 3963 4288 
L 3963 4666 
L 5594 4666 
L 5594 4288 
L 4997 4288 
L 4997 0 
L 4178 0 
L 1319 3372 
L 1319 378 
L 1913 378 
L 1913 0 
L 281 0 
z
" transform="scale(0.015625)"/>
      <path id="DejaVuSerif-Bold-6f" d="M 2138 263 
Q 2488 263 2630 563 
Q 2772 863 2772 1663 
Q 2772 2463 2631 2761 
Q 2491 3059 2138 3059 
Q 1784 3059 1640 2757 
Q 1497 2456 1497 1663 
Q 1497 869 1640 566 
Q 1784 263 2138 263 
z
M 2138 -91 
Q 1259 -91 761 376 
Q 263 844 263 1663 
Q 263 2484 761 2948 
Q 1259 3413 2138 3413 
Q 3019 3413 3516 2948 
Q 4013 2484 4013 1663 
Q 4013 844 3514 376 
Q 3016 -91 2138 -91 
z
" transform="scale(0.015625)"/>
      <path id="DejaVuSerif-Bold-72" d="M 3438 3359 
L 3438 2369 
L 3084 2369 
Q 3066 2634 2941 2764 
Q 2816 2894 2578 2894 
Q 2216 2894 2006 2575 
Q 1797 2256 1797 1691 
L 1797 378 
L 2400 378 
L 2400 0 
L 219 0 
L 219 378 
L 691 378 
L 691 2944 
L 184 2944 
L 184 3322 
L 1797 3322 
L 1797 2731 
Q 1959 3078 2226 3245 
Q 2494 3413 2881 3413 
Q 2978 3413 3117 3398 
Q 3256 3384 3438 3359 
z
" transform="scale(0.015625)"/>
      <path id="DejaVuSerif-Bold-6d" d="M 3884 2778 
Q 4116 3109 4384 3261 
Q 4653 3413 5013 3413 
Q 5584 3413 5867 3089 
Q 6150 2766 6150 2113 
L 6150 378 
L 6625 378 
L 6625 0 
L 4647 0 
L 4647 378 
L 5044 378 
L 5044 1947 
Q 5044 2569 4948 2731 
Q 4853 2894 4594 2894 
Q 4300 2894 4137 2667 
Q 3975 2441 3975 2022 
L 3975 378 
L 4372 378 
L 4372 0 
L 2472 0 
L 2472 378 
L 2869 378 
L 2869 1947 
Q 2869 2569 2772 2731 
Q 2675 2894 2419 2894 
Q 2122 2894 1959 2667 
Q 1797 2441 1797 2022 
L 1797 378 
L 2194 378 
L 2194 0 
L 219 0 
L 219 378 
L 691 378 
L 691 2944 
L 219 2944 
L 219 3322 
L 1797 3322 
L 1797 2853 
Q 1991 3144 2241 3278 
Q 2491 3413 2834 3413 
Q 3241 3413 3494 3258 
Q 3747 3103 3884 2778 
z
" transform="scale(0.015625)"/>
      <path id="DejaVuSerif-Bold-61" d="M 3525 2041 
L 3525 378 
L 4000 378 
L 4000 0 
L 2419 0 
L 2419 422 
Q 2200 159 1931 34 
Q 1663 -91 1319 -91 
Q 809 -91 536 182 
Q 263 456 263 966 
Q 263 1525 655 1803 
Q 1047 2081 1838 2081 
L 2419 2081 
L 2419 2278 
Q 2419 2681 2228 2873 
Q 2038 3066 1638 3066 
Q 1306 3066 1126 2930 
Q 947 2794 872 2484 
L 519 2484 
L 519 3200 
Q 816 3306 1134 3359 
Q 1453 3413 1806 3413 
Q 2697 3413 3111 3081 
Q 3525 2750 3525 2041 
z
M 2419 1044 
L 2419 1709 
L 2003 1709 
Q 1694 1709 1528 1540 
Q 1363 1372 1363 1056 
Q 1363 741 1483 584 
Q 1603 428 1850 428 
Q 2106 428 2262 597 
Q 2419 766 2419 1044 
z
" transform="scale(0.015625)"/>
      <path id="DejaVuSerif-Bold-6c" d="M 1797 378 
L 2272 378 
L 2272 0 
L 219 0 
L 219 378 
L 691 378 
L 691 4488 
L 219 4488 
L 219 4863 
L 1797 4863 
L 1797 378 
z
" transform="scale(0.015625)"/>
      <path id="DejaVuSerif-Bold-69" d="M 588 4263 
Q 588 4516 763 4689 
Q 938 4863 1191 4863 
Q 1438 4863 1611 4689 
Q 1784 4516 1784 4263 
Q 1784 4016 1611 3842 
Q 1438 3669 1191 3669 
Q 938 3669 763 3841 
Q 588 4013 588 4263 
z
M 1797 378 
L 2272 378 
L 2272 0 
L 219 0 
L 219 378 
L 691 378 
L 691 2944 
L 219 2944 
L 219 3322 
L 1797 3322 
L 1797 378 
z
" transform="scale(0.015625)"/>
      <path id="DejaVuSerif-Bold-7a" d="M 225 0 
L 225 378 
L 2131 2956 
L 697 2956 
L 697 2388 
L 325 2388 
L 325 3322 
L 3419 3322 
L 3419 2950 
L 1509 372 
L 3047 372 
L 3047 972 
L 3419 972 
L 3419 0 
L 225 0 
z
" transform="scale(0.015625)"/>
      <path id="DejaVuSerif-Bold-65" d="M 2566 1875 
Q 2566 2531 2444 2795 
Q 2322 3059 2028 3059 
Q 1744 3059 1620 2800 
Q 1497 2541 1497 1931 
L 1497 1875 
L 2566 1875 
z
M 3781 1503 
L 1497 1503 
L 1497 1478 
Q 1497 834 1690 548 
Q 1884 263 2316 263 
Q 2675 263 2897 453 
Q 3119 644 3181 1006 
L 3700 1006 
Q 3566 441 3166 175 
Q 2766 -91 2047 -91 
Q 1184 -91 723 364 
Q 263 819 263 1663 
Q 263 2488 734 2950 
Q 1206 3413 2047 3413 
Q 2872 3413 3312 2927 
Q 3753 2441 3781 1503 
z
" transform="scale(0.015625)"/>
      <path id="DejaVuSerif-Bold-64" d="M 2747 1497 
L 2747 1825 
Q 2747 2406 2597 2665 
Q 2447 2925 2119 2925 
Q 1775 2925 1636 2651 
Q 1497 2378 1497 1663 
Q 1497 947 1637 672 
Q 1778 397 2119 397 
Q 2447 397 2597 656 
Q 2747 916 2747 1497 
z
M 3853 378 
L 4325 378 
L 4325 0 
L 2747 0 
L 2747 422 
Q 2606 163 2367 36 
Q 2128 -91 1778 -91 
Q 1072 -91 667 378 
Q 263 847 263 1663 
Q 263 2481 667 2947 
Q 1072 3413 1778 3413 
Q 2128 3413 2367 3286 
Q 2606 3159 2747 2900 
L 2747 4488 
L 2272 4488 
L 2272 4863 
L 3853 4863 
L 3853 378 
z
" transform="scale(0.015625)"/>
      <path id="DejaVuSerif-Bold-20" transform="scale(0.015625)"/>
      <path id="DejaVuSerif-Bold-74" d="M 634 2944 
L 153 2944 
L 153 3322 
L 634 3322 
L 634 4353 
L 1741 4353 
L 1741 3322 
L 2663 3322 
L 2663 2944 
L 1741 2944 
L 1741 909 
Q 1741 475 1809 369 
Q 1878 263 2059 263 
Q 2259 263 2356 397 
Q 2453 531 2459 813 
L 2925 813 
Q 2897 313 2651 111 
Q 2406 -91 1806 -91 
Q 1122 -91 878 123 
Q 634 338 634 909 
L 634 2944 
z
" transform="scale(0.015625)"/>
      <path id="DejaVuSerif-Bold-73" d="M 300 97 
L 300 1025 
L 653 1025 
Q 697 653 931 458 
Q 1166 263 1569 263 
Q 1906 263 2086 380 
Q 2266 497 2266 716 
Q 2266 916 2152 1025 
Q 2038 1134 1709 1216 
L 1253 1331 
Q 738 1459 506 1698 
Q 275 1938 275 2344 
Q 275 2884 650 3148 
Q 1025 3413 1806 3413 
Q 2100 3413 2433 3364 
Q 2766 3316 3169 3213 
L 3169 2375 
L 2816 2375 
Q 2788 2716 2573 2887 
Q 2359 3059 1959 3059 
Q 1622 3059 1448 2951 
Q 1275 2844 1275 2638 
Q 1275 2469 1375 2372 
Q 1475 2275 1734 2209 
L 2188 2094 
Q 2841 1928 3091 1684 
Q 3341 1441 3341 1006 
Q 3341 444 2939 176 
Q 2538 -91 1691 -91 
Q 1381 -91 1034 -44 
Q 688 3 300 97 
z
" transform="scale(0.015625)"/>
      <path id="DejaVuSerif-Bold-6e" d="M 219 0 
L 219 378 
L 691 378 
L 691 2944 
L 219 2944 
L 219 3322 
L 1797 3322 
L 1797 2853 
Q 1997 3150 2253 3281 
Q 2509 3413 2900 3413 
Q 3459 3413 3745 3083 
Q 4031 2753 4031 2113 
L 4031 378 
L 4506 378 
L 4506 0 
L 2522 0 
L 2522 378 
L 2925 378 
L 2925 2144 
Q 2925 2566 2817 2730 
Q 2709 2894 2444 2894 
Q 2109 2894 1953 2648 
Q 1797 2403 1797 1869 
L 1797 378 
L 2203 378 
L 2203 0 
L 219 0 
z
" transform="scale(0.015625)"/>
      <path id="DejaVuSerif-Bold-63" d="M 3609 1038 
Q 3491 469 3123 189 
Q 2756 -91 2125 -91 
Q 1238 -91 750 368 
Q 263 828 263 1663 
Q 263 2488 744 2950 
Q 1225 3413 2081 3413 
Q 2428 3413 2781 3347 
Q 3134 3281 3500 3150 
L 3500 2228 
L 3150 2228 
Q 3100 2650 2903 2854 
Q 2706 3059 2350 3059 
Q 1888 3059 1692 2746 
Q 1497 2434 1497 1663 
Q 1497 909 1687 586 
Q 1878 263 2309 263 
Q 2644 263 2845 463 
Q 3047 663 3091 1038 
L 3609 1038 
z
" transform="scale(0.015625)"/>
      <path id="DejaVuSerif-Bold-28" d="M 2694 -997 
Q 1641 -606 1122 122 
Q 603 850 603 1931 
Q 603 3013 1115 3731 
Q 1628 4450 2694 4863 
L 2694 4488 
Q 2200 4188 1983 3598 
Q 1766 3009 1766 1931 
Q 1766 856 1983 267 
Q 2200 -322 2694 -622 
L 2694 -997 
z
" transform="scale(0.015625)"/>
      <path id="DejaVuSerif-Bold-68" d="M 219 0 
L 219 378 
L 691 378 
L 691 4488 
L 197 4488 
L 197 4863 
L 1797 4863 
L 1797 2853 
Q 1997 3150 2253 3281 
Q 2509 3413 2900 3413 
Q 3459 3413 3745 3083 
Q 4031 2753 4031 2113 
L 4031 378 
L 4506 378 
L 4506 0 
L 2522 0 
L 2522 378 
L 2925 378 
L 2925 2144 
Q 2925 2566 2817 2730 
Q 2709 2894 2444 2894 
Q 2109 2894 1953 2648 
Q 1797 2403 1797 1869 
L 1797 378 
L 2203 378 
L 2203 0 
L 219 0 
z
" transform="scale(0.015625)"/>
      <path id="DejaVuSerif-Bold-71" d="M 3853 2944 
L 3853 -953 
L 4325 -953 
L 4325 -1331 
L 2234 -1331 
L 2234 -953 
L 2747 -953 
L 2747 422 
Q 2606 163 2367 36 
Q 2128 -91 1778 -91 
Q 1072 -91 667 378 
Q 263 847 263 1663 
Q 263 2481 667 2947 
Q 1072 3413 1778 3413 
Q 2128 3413 2367 3286 
Q 2606 3159 2747 2900 
L 2747 3322 
L 4325 3322 
L 4325 2944 
L 3853 2944 
z
M 2747 1825 
Q 2747 2406 2597 2665 
Q 2447 2925 2119 2925 
Q 1775 2925 1636 2651 
Q 1497 2378 1497 1663 
Q 1497 947 1637 672 
Q 1778 397 2119 397 
Q 2447 397 2597 656 
Q 2747 916 2747 1497 
L 2747 1825 
z
" transform="scale(0.015625)"/>
      <path id="DejaVuSerif-Bold-75" d="M 3963 3322 
L 3963 378 
L 4434 378 
L 4434 0 
L 2853 0 
L 2853 469 
Q 2656 172 2400 40 
Q 2144 -91 1753 -91 
Q 1194 -91 908 239 
Q 622 569 622 1209 
L 622 2944 
L 147 2944 
L 147 3322 
L 1728 3322 
L 1728 1381 
Q 1728 763 1831 595 
Q 1934 428 2209 428 
Q 2544 428 2698 675 
Q 2853 922 2853 1459 
L 2853 2944 
L 2450 2944 
L 2450 3322 
L 3963 3322 
z
" transform="scale(0.015625)"/>
      <path id="DejaVuSerif-Bold-29" d="M 325 -997 
L 325 -622 
Q 819 -322 1036 267 
Q 1253 856 1253 1931 
Q 1253 3009 1036 3598 
Q 819 4188 325 4488 
L 325 4863 
Q 1391 4450 1905 3731 
Q 2419 3013 2419 1931 
Q 2419 850 1898 122 
Q 1378 -606 325 -997 
z
" transform="scale(0.015625)"/>
     </defs>
     <use xlink:href="#DejaVuSerif-Bold-4e"/>
     <use xlink:href="#DejaVuSerif-Bold-6f" transform="translate(91.40625 0)"/>
     <use xlink:href="#DejaVuSerif-Bold-72" transform="translate(158.105469 0)"/>
     <use xlink:href="#DejaVuSerif-Bold-6d" transform="translate(210.791016 0)"/>
     <use xlink:href="#DejaVuSerif-Bold-61" transform="translate(316.601562 0)"/>
     <use xlink:href="#DejaVuSerif-Bold-6c" transform="translate(381.396484 0)"/>
     <use xlink:href="#DejaVuSerif-Bold-69" transform="translate(419.384766 0)"/>
     <use xlink:href="#DejaVuSerif-Bold-7a" transform="translate(457.373047 0)"/>
     <use xlink:href="#DejaVuSerif-Bold-65" transform="translate(514.160156 0)"/>
     <use xlink:href="#DejaVuSerif-Bold-64" transform="translate(577.783203 0)"/>
     <use xlink:href="#DejaVuSerif-Bold-20" transform="translate(647.705078 0)"/>
     <use xlink:href="#DejaVuSerif-Bold-65" transform="translate(682.519531 0)"/>
     <use xlink:href="#DejaVuSerif-Bold-64" transform="translate(746.142578 0)"/>
     <use xlink:href="#DejaVuSerif-Bold-69" transform="translate(816.064453 0)"/>
     <use xlink:href="#DejaVuSerif-Bold-74" transform="translate(854.052734 0)"/>
     <use xlink:href="#DejaVuSerif-Bold-20" transform="translate(900.244141 0)"/>
     <use xlink:href="#DejaVuSerif-Bold-64" transform="translate(935.058594 0)"/>
     <use xlink:href="#DejaVuSerif-Bold-69" transform="translate(1004.980469 0)"/>
     <use xlink:href="#DejaVuSerif-Bold-73" transform="translate(1042.96875 0)"/>
     <use xlink:href="#DejaVuSerif-Bold-74" transform="translate(1099.267578 0)"/>
     <use xlink:href="#DejaVuSerif-Bold-61" transform="translate(1145.458984 0)"/>
     <use xlink:href="#DejaVuSerif-Bold-6e" transform="translate(1210.253906 0)"/>
     <use xlink:href="#DejaVuSerif-Bold-63" transform="translate(1282.958984 0)"/>
     <use xlink:href="#DejaVuSerif-Bold-65" transform="translate(1343.847656 0)"/>
     <use xlink:href="#DejaVuSerif-Bold-20" transform="translate(1407.470703 0)"/>
     <use xlink:href="#DejaVuSerif-Bold-28" transform="translate(1442.285156 0)"/>
     <use xlink:href="#DejaVuSerif-Bold-64" transform="translate(1489.599609 0)"/>
     <use xlink:href="#DejaVuSerif-Bold-69" transform="translate(1559.521484 0)"/>
     <use xlink:href="#DejaVuSerif-Bold-73" transform="translate(1597.509766 0)"/>
     <use xlink:href="#DejaVuSerif-Bold-63" transform="translate(1653.808594 0)"/>
     <use xlink:href="#DejaVuSerif-Bold-72" transform="translate(1714.697266 0)"/>
     <use xlink:href="#DejaVuSerif-Bold-65" transform="translate(1767.382812 0)"/>
     <use xlink:href="#DejaVuSerif-Bold-74" transform="translate(1831.005859 0)"/>
     <use xlink:href="#DejaVuSerif-Bold-65" transform="translate(1877.197266 0)"/>
     <use xlink:href="#DejaVuSerif-Bold-20" transform="translate(1940.820312 0)"/>
     <use xlink:href="#DejaVuSerif-Bold-74" transform="translate(1975.634766 0)"/>
     <use xlink:href="#DejaVuSerif-Bold-65" transform="translate(2021.826172 0)"/>
     <use xlink:href="#DejaVuSerif-Bold-63" transform="translate(2085.449219 0)"/>
     <use xlink:href="#DejaVuSerif-Bold-68" transform="translate(2146.337891 0)"/>
     <use xlink:href="#DejaVuSerif-Bold-6e" transform="translate(2219.042969 0)"/>
     <use xlink:href="#DejaVuSerif-Bold-69" transform="translate(2291.748047 0)"/>
     <use xlink:href="#DejaVuSerif-Bold-71" transform="translate(2329.736328 0)"/>
     <use xlink:href="#DejaVuSerif-Bold-75" transform="translate(2399.658203 0)"/>
     <use xlink:href="#DejaVuSerif-Bold-65" transform="translate(2472.363281 0)"/>
     <use xlink:href="#DejaVuSerif-Bold-73" transform="translate(2535.986328 0)"/>
     <use xlink:href="#DejaVuSerif-Bold-29" transform="translate(2592.285156 0)"/>
    </g>
   </g>
  </g>
  <g id="axes_2">
   <g id="patch_9">
    <path d="M 538.87925 347.12 
L 992.69925 347.12 
L 992.69925 62.7675 
L 538.87925 62.7675 
z
" style="fill: #ffffff"/>
   </g>
   <g id="patch_10">
    <path d="M 559.507432 347.12 
L 677.382756 347.12 
L 677.382756 323.54685 
L 559.507432 323.54685 
z
" clip-path="url(#p5aa3f13ef4)" style="fill: #009e73; opacity: 0.85; stroke: #000000; stroke-width: 0.5; stroke-linejoin: miter"/>
   </g>
   <g id="patch_11">
    <path d="M 706.851588 347.12 
L 824.726912 347.12 
L 824.726912 143.875738 
L 706.851588 143.875738 
z
" clip-path="url(#p5aa3f13ef4)" style="fill: #f0e442; opacity: 0.85; stroke: #000000; stroke-width: 0.5; stroke-linejoin: miter"/>
   </g>
   <g id="patch_12">
    <path d="M 854.195744 347.12 
L 972.071068 347.12 
L 972.071068 323.54685 
L 854.195744 323.54685 
z
" clip-path="url(#p5aa3f13ef4)" style="fill: #0072b2; opacity: 0.85; stroke: #000000; stroke-width: 0.5; stroke-linejoin: miter"/>
   </g>
   <g id="matplotlib.axis_3">
    <g id="xtick_3">
     <g id="line2d_19">
      <path d="M 618.445094 347.12 
L 618.445094 62.7675 
" clip-path="url(#p5aa3f13ef4)" style="fill: none; stroke: #b0b0b0; stroke-opacity: 0.3; stroke-width: 0.8; stroke-linecap: square"/>
     </g>
     <g id="line2d_20">
      <g>
       <use xlink:href="#m404b58478f" x="618.445094" y="347.12" style="stroke: #000000; stroke-width: 0.8"/>
      </g>
     </g>
     <g id="text_13">
      <!-- Patching -->
      <g transform="translate(600.708844 362.29875) scale(0.08 -0.08)">
       <defs>
        <path id="DejaVuSerif-50" d="M 1581 2375 
L 2406 2375 
Q 2872 2375 3115 2626 
Q 3359 2878 3359 3353 
Q 3359 3831 3115 4081 
Q 2872 4331 2406 4331 
L 1581 4331 
L 1581 2375 
z
M 353 0 
L 353 331 
L 947 331 
L 947 4331 
L 353 4331 
L 353 4666 
L 2559 4666 
Q 3259 4666 3668 4311 
Q 4078 3956 4078 3353 
Q 4078 2753 3668 2397 
Q 3259 2041 2559 2041 
L 1581 2041 
L 1581 331 
L 2303 331 
L 2303 0 
L 353 0 
z
" transform="scale(0.015625)"/>
        <path id="DejaVuSerif-68" d="M 263 0 
L 263 331 
L 781 331 
L 781 4531 
L 231 4531 
L 231 4863 
L 1356 4863 
L 1356 2731 
Q 1516 3069 1770 3241 
Q 2025 3413 2363 3413 
Q 2913 3413 3172 3097 
Q 3431 2781 3431 2113 
L 3431 331 
L 3944 331 
L 3944 0 
L 2356 0 
L 2356 331 
L 2853 331 
L 2853 1931 
Q 2853 2541 2704 2764 
Q 2556 2988 2175 2988 
Q 1775 2988 1565 2697 
Q 1356 2406 1356 1850 
L 1356 331 
L 1856 331 
L 1856 0 
L 263 0 
z
" transform="scale(0.015625)"/>
        <path id="DejaVuSerif-67" d="M 3359 2988 
L 3359 72 
Q 3359 -644 2965 -1033 
Q 2572 -1422 1844 -1422 
Q 1516 -1422 1216 -1362 
Q 916 -1303 641 -1184 
L 641 -488 
L 941 -488 
Q 997 -813 1206 -963 
Q 1416 -1113 1806 -1113 
Q 2313 -1113 2548 -827 
Q 2784 -541 2784 72 
L 2784 519 
Q 2616 206 2355 57 
Q 2094 -91 1709 -91 
Q 1097 -91 708 395 
Q 319 881 319 1663 
Q 319 2444 706 2928 
Q 1094 3413 1709 3413 
Q 2094 3413 2355 3264 
Q 2616 3116 2784 2803 
L 2784 3322 
L 3909 3322 
L 3909 2988 
L 3359 2988 
z
M 2784 1825 
Q 2784 2422 2554 2737 
Q 2325 3053 1888 3053 
Q 1444 3053 1217 2703 
Q 991 2353 991 1663 
Q 991 975 1217 622 
Q 1444 269 1888 269 
Q 2325 269 2554 583 
Q 2784 897 2784 1497 
L 2784 1825 
z
" transform="scale(0.015625)"/>
       </defs>
       <use xlink:href="#DejaVuSerif-50"/>
       <use xlink:href="#DejaVuSerif-61" transform="translate(62.785156 0)"/>
       <use xlink:href="#DejaVuSerif-74" transform="translate(122.404297 0)"/>
       <use xlink:href="#DejaVuSerif-63" transform="translate(162.589844 0)"/>
       <use xlink:href="#DejaVuSerif-68" transform="translate(218.595703 0)"/>
       <use xlink:href="#DejaVuSerif-69" transform="translate(283 0)"/>
       <use xlink:href="#DejaVuSerif-6e" transform="translate(314.982422 0)"/>
       <use xlink:href="#DejaVuSerif-67" transform="translate(379.386719 0)"/>
      </g>
     </g>
    </g>
    <g id="xtick_4">
     <g id="line2d_21">
      <path d="M 765.78925 347.12 
L 765.78925 62.7675 
" clip-path="url(#p5aa3f13ef4)" style="fill: none; stroke: #b0b0b0; stroke-opacity: 0.3; stroke-width: 0.8; stroke-linecap: square"/>
     </g>
     <g id="line2d_22">
      <g>
       <use xlink:href="#m404b58478f" x="765.78925" y="347.12" style="stroke: #000000; stroke-width: 0.8"/>
      </g>
     </g>
     <g id="text_14">
      <!-- Decomposition -->
      <g transform="translate(735.60175 362.29875) scale(0.08 -0.08)">
       <defs>
        <path id="DejaVuSerif-6d" d="M 3316 2675 
Q 3481 3041 3739 3227 
Q 3997 3413 4341 3413 
Q 4863 3413 5119 3089 
Q 5375 2766 5375 2113 
L 5375 331 
L 5894 331 
L 5894 0 
L 4300 0 
L 4300 331 
L 4800 331 
L 4800 2047 
Q 4800 2556 4650 2772 
Q 4500 2988 4153 2988 
Q 3769 2988 3567 2697 
Q 3366 2406 3366 1850 
L 3366 331 
L 3866 331 
L 3866 0 
L 2291 0 
L 2291 331 
L 2791 331 
L 2791 2069 
Q 2791 2566 2641 2777 
Q 2491 2988 2144 2988 
Q 1759 2988 1557 2697 
Q 1356 2406 1356 1850 
L 1356 331 
L 1856 331 
L 1856 0 
L 263 0 
L 263 331 
L 781 331 
L 781 2994 
L 231 2994 
L 231 3322 
L 1356 3322 
L 1356 2731 
Q 1516 3063 1762 3238 
Q 2009 3413 2322 3413 
Q 2709 3413 2968 3220 
Q 3228 3028 3316 2675 
z
" transform="scale(0.015625)"/>
        <path id="DejaVuSerif-70" d="M 1313 1825 
L 1313 1497 
Q 1313 897 1542 583 
Q 1772 269 2209 269 
Q 2650 269 2876 622 
Q 3103 975 3103 1663 
Q 3103 2353 2876 2703 
Q 2650 3053 2209 3053 
Q 1772 3053 1542 2737 
Q 1313 2422 1313 1825 
z
M 738 2988 
L 184 2988 
L 184 3322 
L 1313 3322 
L 1313 2803 
Q 1481 3116 1742 3264 
Q 2003 3413 2388 3413 
Q 3000 3413 3387 2928 
Q 3775 2444 3775 1663 
Q 3775 881 3387 395 
Q 3000 -91 2388 -91 
Q 2003 -91 1742 57 
Q 1481 206 1313 519 
L 1313 -997 
L 1856 -997 
L 1856 -1331 
L 184 -1331 
L 184 -997 
L 738 -997 
L 738 2988 
z
" transform="scale(0.015625)"/>
       </defs>
       <use xlink:href="#DejaVuSerif-44"/>
       <use xlink:href="#DejaVuSerif-65" transform="translate(80.175781 0)"/>
       <use xlink:href="#DejaVuSerif-63" transform="translate(139.355469 0)"/>
       <use xlink:href="#DejaVuSerif-6f" transform="translate(195.361328 0)"/>
       <use xlink:href="#DejaVuSerif-6d" transform="translate(255.566406 0)"/>
       <use xlink:href="#DejaVuSerif-70" transform="translate(350.390625 0)"/>
       <use xlink:href="#DejaVuSerif-6f" transform="translate(414.404297 0)"/>
       <use xlink:href="#DejaVuSerif-73" transform="translate(474.609375 0)"/>
       <use xlink:href="#DejaVuSerif-69" transform="translate(525.927734 0)"/>
       <use xlink:href="#DejaVuSerif-74" transform="translate(557.910156 0)"/>
       <use xlink:href="#DejaVuSerif-69" transform="translate(598.095703 0)"/>
       <use xlink:href="#DejaVuSerif-6f" transform="translate(630.078125 0)"/>
       <use xlink:href="#DejaVuSerif-6e" transform="translate(690.283203 0)"/>
      </g>
     </g>
    </g>
    <g id="xtick_5">
     <g id="line2d_23">
      <path d="M 913.133406 347.12 
L 913.133406 62.7675 
" clip-path="url(#p5aa3f13ef4)" style="fill: none; stroke: #b0b0b0; stroke-opacity: 0.3; stroke-width: 0.8; stroke-linecap: square"/>
     </g>
     <g id="line2d_24">
      <g>
       <use xlink:href="#m404b58478f" x="913.133406" y="347.12" style="stroke: #000000; stroke-width: 0.8"/>
      </g>
     </g>
     <g id="text_15">
      <!-- Foundation -->
      <g transform="translate(890.200281 362.29875) scale(0.08 -0.08)">
       <defs>
        <path id="DejaVuSerif-46" d="M 353 0 
L 353 331 
L 947 331 
L 947 4331 
L 353 4331 
L 353 4666 
L 4172 4666 
L 4172 3628 
L 3788 3628 
L 3788 4281 
L 1581 4281 
L 1581 2719 
L 3175 2719 
L 3175 3303 
L 3559 3303 
L 3559 1753 
L 3175 1753 
L 3175 2338 
L 1581 2338 
L 1581 331 
L 2328 331 
L 2328 0 
L 353 0 
z
" transform="scale(0.015625)"/>
        <path id="DejaVuSerif-75" d="M 2266 3322 
L 3341 3322 
L 3341 331 
L 3884 331 
L 3884 0 
L 2766 0 
L 2766 588 
Q 2606 256 2353 82 
Q 2100 -91 1766 -91 
Q 1213 -91 952 223 
Q 691 538 691 1209 
L 691 2988 
L 172 2988 
L 172 3322 
L 1269 3322 
L 1269 1388 
Q 1269 781 1417 556 
Q 1566 331 1947 331 
Q 2347 331 2556 625 
Q 2766 919 2766 1478 
L 2766 2988 
L 2266 2988 
L 2266 3322 
z
" transform="scale(0.015625)"/>
        <path id="DejaVuSerif-64" d="M 3359 331 
L 3909 331 
L 3909 0 
L 2784 0 
L 2784 519 
Q 2616 206 2355 57 
Q 2094 -91 1709 -91 
Q 1097 -91 708 395 
Q 319 881 319 1663 
Q 319 2444 706 2928 
Q 1094 3413 1709 3413 
Q 2094 3413 2355 3264 
Q 2616 3116 2784 2803 
L 2784 4531 
L 2241 4531 
L 2241 4863 
L 3359 4863 
L 3359 331 
z
M 2784 1497 
L 2784 1825 
Q 2784 2422 2554 2737 
Q 2325 3053 1888 3053 
Q 1444 3053 1217 2703 
Q 991 2353 991 1663 
Q 991 975 1217 622 
Q 1444 269 1888 269 
Q 2325 269 2554 583 
Q 2784 897 2784 1497 
z
" transform="scale(0.015625)"/>
       </defs>
       <use xlink:href="#DejaVuSerif-46"/>
       <use xlink:href="#DejaVuSerif-6f" transform="translate(63.884766 0)"/>
       <use xlink:href="#DejaVuSerif-75" transform="translate(124.089844 0)"/>
       <use xlink:href="#DejaVuSerif-6e" transform="translate(188.494141 0)"/>
       <use xlink:href="#DejaVuSerif-64" transform="translate(252.898438 0)"/>
       <use xlink:href="#DejaVuSerif-61" transform="translate(316.912109 0)"/>
       <use xlink:href="#DejaVuSerif-74" transform="translate(376.53125 0)"/>
       <use xlink:href="#DejaVuSerif-69" transform="translate(416.716797 0)"/>
       <use xlink:href="#DejaVuSerif-6f" transform="translate(448.699219 0)"/>
       <use xlink:href="#DejaVuSerif-6e" transform="translate(508.904297 0)"/>
      </g>
     </g>
    </g>
   </g>
   <g id="matplotlib.axis_4">
    <g id="ytick_7">
     <g id="line2d_25">
      <path d="M 538.87925 347.12 
L 992.69925 347.12 
" clip-path="url(#p5aa3f13ef4)" style="fill: none; stroke: #b0b0b0; stroke-opacity: 0.3; stroke-width: 0.8; stroke-linecap: square"/>
     </g>
     <g id="line2d_26">
      <g>
       <use xlink:href="#mce6910f501" x="538.87925" y="347.12" style="stroke: #000000; stroke-width: 0.8"/>
      </g>
     </g>
     <g id="text_16">
      <!-- 0 -->
      <g transform="translate(524.68925 350.159375) scale(0.08 -0.08)">
       <use xlink:href="#DejaVuSerif-30"/>
      </g>
     </g>
    </g>
    <g id="ytick_8">
     <g id="line2d_27">
      <path d="M 538.87925 287.019664 
L 992.69925 287.019664 
" clip-path="url(#p5aa3f13ef4)" style="fill: none; stroke: #b0b0b0; stroke-opacity: 0.3; stroke-width: 0.8; stroke-linecap: square"/>
     </g>
     <g id="line2d_28">
      <g>
       <use xlink:href="#mce6910f501" x="538.87925" y="287.019664" style="stroke: #000000; stroke-width: 0.8"/>
      </g>
     </g>
     <g id="text_17">
      <!-- 5 -->
      <g transform="translate(524.68925 290.059039) scale(0.08 -0.08)">
       <use xlink:href="#DejaVuSerif-35"/>
      </g>
     </g>
    </g>
    <g id="ytick_9">
     <g id="line2d_29">
      <path d="M 538.87925 226.919329 
L 992.69925 226.919329 
" clip-path="url(#p5aa3f13ef4)" style="fill: none; stroke: #b0b0b0; stroke-opacity: 0.3; stroke-width: 0.8; stroke-linecap: square"/>
     </g>
     <g id="line2d_30">
      <g>
       <use xlink:href="#mce6910f501" x="538.87925" y="226.919329" style="stroke: #000000; stroke-width: 0.8"/>
      </g>
     </g>
     <g id="text_18">
      <!-- 10 -->
      <g transform="translate(519.59925 229.958704) scale(0.08 -0.08)">
       <use xlink:href="#DejaVuSerif-31"/>
       <use xlink:href="#DejaVuSerif-30" transform="translate(63.623047 0)"/>
      </g>
     </g>
    </g>
    <g id="ytick_10">
     <g id="line2d_31">
      <path d="M 538.87925 166.818993 
L 992.69925 166.818993 
" clip-path="url(#p5aa3f13ef4)" style="fill: none; stroke: #b0b0b0; stroke-opacity: 0.3; stroke-width: 0.8; stroke-linecap: square"/>
     </g>
     <g id="line2d_32">
      <g>
       <use xlink:href="#mce6910f501" x="538.87925" y="166.818993" style="stroke: #000000; stroke-width: 0.8"/>
      </g>
     </g>
     <g id="text_19">
      <!-- 15 -->
      <g transform="translate(519.59925 169.858368) scale(0.08 -0.08)">
       <use xlink:href="#DejaVuSerif-31"/>
       <use xlink:href="#DejaVuSerif-35" transform="translate(63.623047 0)"/>
      </g>
     </g>
    </g>
    <g id="ytick_11">
     <g id="line2d_33">
      <path d="M 538.87925 106.718658 
L 992.69925 106.718658 
" clip-path="url(#p5aa3f13ef4)" style="fill: none; stroke: #b0b0b0; stroke-opacity: 0.3; stroke-width: 0.8; stroke-linecap: square"/>
     </g>
     <g id="line2d_34">
      <g>
       <use xlink:href="#mce6910f501" x="538.87925" y="106.718658" style="stroke: #000000; stroke-width: 0.8"/>
      </g>
     </g>
     <g id="text_20">
      <!-- 20 -->
      <g transform="translate(519.59925 109.758033) scale(0.08 -0.08)">
       <use xlink:href="#DejaVuSerif-32"/>
       <use xlink:href="#DejaVuSerif-30" transform="translate(63.623047 0)"/>
      </g>
     </g>
    </g>
    <g id="text_21">
     <!-- L2 distance -->
     <g transform="translate(513.769125 230.839125) rotate(-90) scale(0.088 -0.088)">
      <defs>
       <path id="DejaVuSerif-4c" d="M 353 0 
L 353 331 
L 947 331 
L 947 4331 
L 353 4331 
L 353 4666 
L 2175 4666 
L 2175 4331 
L 1581 4331 
L 1581 384 
L 3713 384 
L 3713 1166 
L 4097 1166 
L 4097 0 
L 353 0 
z
" transform="scale(0.015625)"/>
       <path id="DejaVuSerif-20" transform="scale(0.015625)"/>
      </defs>
      <use xlink:href="#DejaVuSerif-4c"/>
      <use xlink:href="#DejaVuSerif-32" transform="translate(66.40625 0)"/>
      <use xlink:href="#DejaVuSerif-20" transform="translate(130.029297 0)"/>
      <use xlink:href="#DejaVuSerif-64" transform="translate(161.816406 0)"/>
      <use xlink:href="#DejaVuSerif-69" transform="translate(225.830078 0)"/>
      <use xlink:href="#DejaVuSerif-73" transform="translate(257.8125 0)"/>
      <use xlink:href="#DejaVuSerif-74" transform="translate(309.130859 0)"/>
      <use xlink:href="#DejaVuSerif-61" transform="translate(349.316406 0)"/>
      <use xlink:href="#DejaVuSerif-6e" transform="translate(408.935547 0)"/>
      <use xlink:href="#DejaVuSerif-63" transform="translate(473.339844 0)"/>
      <use xlink:href="#DejaVuSerif-65" transform="translate(529.345703 0)"/>
     </g>
    </g>
   </g>
   <g id="LineCollection_2">
    <path d="M 618.445094 323.686836 
L 618.445094 323.406864 
" clip-path="url(#p5aa3f13ef4)" style="fill: none; stroke: #000000; stroke-width: 1.4"/>
    <path d="M 765.78925 211.443381 
L 765.78925 76.308095 
" clip-path="url(#p5aa3f13ef4)" style="fill: none; stroke: #000000; stroke-width: 1.4"/>
    <path d="M 913.133406 323.686836 
L 913.133406 323.406864 
" clip-path="url(#p5aa3f13ef4)" style="fill: none; stroke: #000000; stroke-width: 1.4"/>
   </g>
   <g id="line2d_35">
    <g clip-path="url(#p5aa3f13ef4)">
     <use xlink:href="#m63418017d3" x="618.445094" y="323.686836" style="fill: #1f77b4"/>
     <use xlink:href="#m63418017d3" x="765.78925" y="211.443381" style="fill: #1f77b4"/>
     <use xlink:href="#m63418017d3" x="913.133406" y="323.686836" style="fill: #1f77b4"/>
    </g>
   </g>
   <g id="line2d_36">
    <g clip-path="url(#p5aa3f13ef4)">
     <use xlink:href="#m63418017d3" x="618.445094" y="323.406864" style="fill: #1f77b4"/>
     <use xlink:href="#m63418017d3" x="765.78925" y="76.308095" style="fill: #1f77b4"/>
     <use xlink:href="#m63418017d3" x="913.133406" y="323.406864" style="fill: #1f77b4"/>
    </g>
   </g>
   <g id="patch_13">
    <path d="M 538.87925 347.12 
L 538.87925 62.7675 
" style="fill: none; stroke: #000000; stroke-width: 0.8; stroke-linejoin: miter; stroke-linecap: square"/>
   </g>
   <g id="patch_14">
    <path d="M 992.69925 347.12 
L 992.69925 62.7675 
" style="fill: none; stroke: #000000; stroke-width: 0.8; stroke-linejoin: miter; stroke-linecap: square"/>
   </g>
   <g id="patch_15">
    <path d="M 538.87925 347.12 
L 992.69925 347.12 
" style="fill: none; stroke: #000000; stroke-width: 0.8; stroke-linejoin: miter; stroke-linecap: square"/>
   </g>
   <g id="patch_16">
    <path d="M 538.87925 62.7675 
L 992.69925 62.7675 
" style="fill: none; stroke: #000000; stroke-width: 0.8; stroke-linejoin: miter; stroke-linecap: square"/>
   </g>
   <g id="text_22">
    <!-- 1.961 -->
    <g transform="translate(604.131032 321.327176) scale(0.1 -0.1)">
     <use xlink:href="#DejaVuSerif-31"/>
     <use xlink:href="#DejaVuSerif-2e" transform="translate(63.623047 0)"/>
     <use xlink:href="#DejaVuSerif-39" transform="translate(95.410156 0)"/>
     <use xlink:href="#DejaVuSerif-36" transform="translate(159.033203 0)"/>
     <use xlink:href="#DejaVuSerif-31" transform="translate(222.65625 0)"/>
    </g>
   </g>
   <g id="text_23">
    <!-- 16.909 -->
    <g transform="translate(748.293938 74.228408) scale(0.1 -0.1)">
     <use xlink:href="#DejaVuSerif-31"/>
     <use xlink:href="#DejaVuSerif-36" transform="translate(63.623047 0)"/>
     <use xlink:href="#DejaVuSerif-2e" transform="translate(127.246094 0)"/>
     <use xlink:href="#DejaVuSerif-39" transform="translate(159.033203 0)"/>
     <use xlink:href="#DejaVuSerif-30" transform="translate(222.65625 0)"/>
     <use xlink:href="#DejaVuSerif-39" transform="translate(286.279297 0)"/>
    </g>
   </g>
   <g id="text_24">
    <!-- 1.961 -->
    <g transform="translate(898.819343 321.327176) scale(0.1 -0.1)">
     <use xlink:href="#DejaVuSerif-31"/>
     <use xlink:href="#DejaVuSerif-2e" transform="translate(63.623047 0)"/>
     <use xlink:href="#DejaVuSerif-39" transform="translate(95.410156 0)"/>
     <use xlink:href="#DejaVuSerif-36" transform="translate(159.033203 0)"/>
     <use xlink:href="#DejaVuSerif-31" transform="translate(222.65625 0)"/>
    </g>
   </g>
   <g id="text_25">
    <!-- Mean L2 distance (continuous techniques) -->
    <g transform="translate(633.778078 56.7675) scale(0.11 -0.11)">
     <defs>
      <path id="DejaVuSerif-Bold-4d" d="M 269 0 
L 269 378 
L 863 378 
L 863 4288 
L 269 4288 
L 269 4666 
L 2194 4666 
L 3525 1672 
L 4863 4666 
L 6784 4666 
L 6784 4288 
L 6188 4288 
L 6188 378 
L 6784 378 
L 6784 0 
L 4384 0 
L 4384 378 
L 4978 378 
L 4978 3938 
L 3531 684 
L 2741 684 
L 1300 3938 
L 1300 378 
L 1894 378 
L 1894 0 
L 269 0 
z
" transform="scale(0.015625)"/>
      <path id="DejaVuSerif-Bold-4c" d="M 300 0 
L 300 378 
L 897 378 
L 897 4288 
L 300 4288 
L 300 4666 
L 2700 4666 
L 2700 4288 
L 2100 4288 
L 2100 428 
L 3938 428 
L 3938 1166 
L 4359 1166 
L 4359 0 
L 300 0 
z
" transform="scale(0.015625)"/>
      <path id="DejaVuSerif-Bold-32" d="M 844 3513 
L 469 3513 
L 469 4519 
Q 850 4634 1223 4692 
Q 1597 4750 1978 4750 
Q 2869 4750 3367 4386 
Q 3866 4022 3866 3372 
Q 3866 2909 3591 2542 
Q 3316 2175 2541 1672 
L 1241 819 
L 3450 819 
L 3450 1369 
L 3878 1369 
L 3878 0 
L 428 0 
L 428 763 
L 1119 1241 
Q 2003 1850 2297 2278 
Q 2591 2706 2591 3278 
Q 2591 3819 2367 4101 
Q 2144 4384 1716 4384 
Q 1347 4384 1125 4161 
Q 903 3938 844 3513 
z
" transform="scale(0.015625)"/>
     </defs>
     <use xlink:href="#DejaVuSerif-Bold-4d"/>
     <use xlink:href="#DejaVuSerif-Bold-65" transform="translate(110.693359 0)"/>
     <use xlink:href="#DejaVuSerif-Bold-61" transform="translate(174.316406 0)"/>
     <use xlink:href="#DejaVuSerif-Bold-6e" transform="translate(239.111328 0)"/>
     <use xlink:href="#DejaVuSerif-Bold-20" transform="translate(311.816406 0)"/>
     <use xlink:href="#DejaVuSerif-Bold-4c" transform="translate(346.630859 0)"/>
     <use xlink:href="#DejaVuSerif-Bold-32" transform="translate(416.943359 0)"/>
     <use xlink:href="#DejaVuSerif-Bold-20" transform="translate(486.523438 0)"/>
     <use xlink:href="#DejaVuSerif-Bold-64" transform="translate(521.337891 0)"/>
     <use xlink:href="#DejaVuSerif-Bold-69" transform="translate(591.259766 0)"/>
     <use xlink:href="#DejaVuSerif-Bold-73" transform="translate(629.248047 0)"/>
     <use xlink:href="#DejaVuSerif-Bold-74" transform="translate(685.546875 0)"/>
     <use xlink:href="#DejaVuSerif-Bold-61" transform="translate(731.738281 0)"/>
     <use xlink:href="#DejaVuSerif-Bold-6e" transform="translate(796.533203 0)"/>
     <use xlink:href="#DejaVuSerif-Bold-63" transform="translate(869.238281 0)"/>
     <use xlink:href="#DejaVuSerif-Bold-65" transform="translate(930.126953 0)"/>
     <use xlink:href="#DejaVuSerif-Bold-20" transform="translate(993.75 0)"/>
     <use xlink:href="#DejaVuSerif-Bold-28" transform="translate(1028.564453 0)"/>
     <use xlink:href="#DejaVuSerif-Bold-63" transform="translate(1075.878906 0)"/>
     <use xlink:href="#DejaVuSerif-Bold-6f" transform="translate(1136.767578 0)"/>
     <use xlink:href="#DejaVuSerif-Bold-6e" transform="translate(1203.466797 0)"/>
     <use xlink:href="#DejaVuSerif-Bold-74" transform="translate(1276.171875 0)"/>
     <use xlink:href="#DejaVuSerif-Bold-69" transform="translate(1322.363281 0)"/>
     <use xlink:href="#DejaVuSerif-Bold-6e" transform="translate(1360.351562 0)"/>
     <use xlink:href="#DejaVuSerif-Bold-75" transform="translate(1433.056641 0)"/>
     <use xlink:href="#DejaVuSerif-Bold-6f" transform="translate(1505.761719 0)"/>
     <use xlink:href="#DejaVuSerif-Bold-75" transform="translate(1572.460938 0)"/>
     <use xlink:href="#DejaVuSerif-Bold-73" transform="translate(1645.166016 0)"/>
     <use xlink:href="#DejaVuSerif-Bold-20" transform="translate(1701.464844 0)"/>
     <use xlink:href="#DejaVuSerif-Bold-74" transform="translate(1736.279297 0)"/>
     <use xlink:href="#DejaVuSerif-Bold-65" transform="translate(1782.470703 0)"/>
     <use xlink:href="#DejaVuSerif-Bold-63" transform="translate(1846.09375 0)"/>
     <use xlink:href="#DejaVuSerif-Bold-68" transform="translate(1906.982422 0)"/>
     <use xlink:href="#DejaVuSerif-Bold-6e" transform="translate(1979.6875 0)"/>
     <use xlink:href="#DejaVuSerif-Bold-69" transform="translate(2052.392578 0)"/>
     <use xlink:href="#DejaVuSerif-Bold-71" transform="translate(2090.380859 0)"/>
     <use xlink:href="#DejaVuSerif-Bold-75" transform="translate(2160.302734 0)"/>
     <use xlink:href="#DejaVuSerif-Bold-65" transform="translate(2233.007812 0)"/>
     <use xlink:href="#DejaVuSerif-Bold-73" transform="translate(2296.630859 0)"/>
     <use xlink:href="#DejaVuSerif-Bold-29" transform="translate(2352.929688 0)"/>
    </g>
   </g>
  </g>
  <g id="text_26">
   <!-- Token-space distance: original vs perturbed series (σ = 0.5, mean ± std across 4 datasets × 3 seeds) -->
   <g transform="translate(162.122063 16.318125) scale(0.12 -0.12)">
    <defs>
     <path id="DejaVuSerif-Bold-54" d="M 1159 0 
L 1159 378 
L 1778 378 
L 1778 4238 
L 500 4238 
L 500 3500 
L 72 3500 
L 72 4666 
L 4697 4666 
L 4697 3500 
L 4275 3500 
L 4275 4238 
L 2988 4238 
L 2988 378 
L 3609 378 
L 3609 0 
L 1159 0 
z
" transform="scale(0.015625)"/>
     <path id="DejaVuSerif-Bold-6b" d="M 2216 0 
L 219 0 
L 219 378 
L 691 378 
L 691 4488 
L 219 4488 
L 219 4863 
L 1797 4863 
L 1797 1741 
L 3138 2944 
L 2741 2944 
L 2741 3322 
L 4256 3322 
L 4256 2944 
L 3641 2944 
L 2784 2175 
L 4184 378 
L 4544 378 
L 4544 0 
L 2638 0 
L 2638 378 
L 3028 378 
L 2106 1563 
L 1797 1288 
L 1797 378 
L 2216 378 
L 2216 0 
z
" transform="scale(0.015625)"/>
     <path id="DejaVuSerif-Bold-2d" d="M 347 2138 
L 2309 2138 
L 2309 1294 
L 347 1294 
L 347 2138 
z
" transform="scale(0.015625)"/>
     <path id="DejaVuSerif-Bold-70" d="M 1728 1825 
L 1728 1497 
Q 1728 916 1876 656 
Q 2025 397 2356 397 
Q 2697 397 2836 672 
Q 2975 947 2975 1663 
Q 2975 2378 2836 2651 
Q 2697 2925 2356 2925 
Q 2025 2925 1876 2665 
Q 1728 2406 1728 1825 
z
M 622 2944 
L 147 2944 
L 147 3322 
L 1728 3322 
L 1728 2900 
Q 1869 3159 2106 3286 
Q 2344 3413 2694 3413 
Q 3403 3413 3811 2945 
Q 4219 2478 4219 1663 
Q 4219 847 3811 378 
Q 3403 -91 2694 -91 
Q 2344 -91 2106 36 
Q 1869 163 1728 422 
L 1728 -953 
L 2241 -953 
L 2241 -1331 
L 147 -1331 
L 147 -953 
L 622 -953 
L 622 2944 
z
" transform="scale(0.015625)"/>
     <path id="DejaVuSerif-Bold-3a" d="M 588 2541 
Q 588 2788 761 2963 
Q 934 3138 1178 3138 
Q 1422 3138 1597 2961 
Q 1772 2784 1772 2541 
Q 1772 2297 1598 2125 
Q 1425 1953 1178 1953 
Q 931 1953 759 2125 
Q 588 2297 588 2541 
z
M 588 506 
Q 588 750 761 925 
Q 934 1100 1178 1100 
Q 1422 1100 1597 925 
Q 1772 750 1772 506 
Q 1772 259 1597 84 
Q 1422 -91 1178 -91 
Q 934 -91 761 84 
Q 588 259 588 506 
z
" transform="scale(0.015625)"/>
     <path id="DejaVuSerif-Bold-67" d="M 3853 2944 
L 3853 44 
Q 3853 -656 3354 -1039 
Q 2856 -1422 1947 -1422 
Q 1616 -1422 1275 -1370 
Q 934 -1319 575 -1216 
L 575 -422 
L 928 -422 
Q 975 -750 1192 -909 
Q 1409 -1069 1813 -1069 
Q 2325 -1069 2536 -823 
Q 2747 -578 2747 44 
L 2747 422 
Q 2606 163 2367 36 
Q 2128 -91 1778 -91 
Q 1072 -91 667 378 
Q 263 847 263 1663 
Q 263 2481 667 2947 
Q 1072 3413 1778 3413 
Q 2128 3413 2367 3286 
Q 2606 3159 2747 2900 
L 2747 3322 
L 4325 3322 
L 4325 2944 
L 3853 2944 
z
M 2747 1825 
Q 2747 2406 2597 2665 
Q 2447 2925 2119 2925 
Q 1775 2925 1636 2651 
Q 1497 2378 1497 1663 
Q 1497 947 1637 672 
Q 1778 397 2119 397 
Q 2447 397 2597 656 
Q 2747 916 2747 1497 
L 2747 1825 
z
" transform="scale(0.015625)"/>
     <path id="DejaVuSerif-Bold-76" d="M 1428 0 
L 250 2944 
L -116 2944 
L -116 3322 
L 1791 3322 
L 1791 2944 
L 1388 2944 
L 2228 844 
L 3066 2944 
L 2631 2944 
L 2631 3322 
L 3878 3322 
L 3878 2944 
L 3494 2944 
L 2316 0 
L 1428 0 
z
" transform="scale(0.015625)"/>
     <path id="DejaVuSerif-Bold-62" d="M 622 378 
L 622 4488 
L 147 4488 
L 147 4863 
L 1728 4863 
L 1728 2900 
Q 1869 3159 2106 3286 
Q 2344 3413 2694 3413 
Q 3403 3413 3811 2945 
Q 4219 2478 4219 1663 
Q 4219 847 3811 378 
Q 3403 -91 2694 -91 
Q 2344 -91 2106 36 
Q 1869 163 1728 422 
L 1728 0 
L 147 0 
L 147 378 
L 622 378 
z
M 1728 1497 
Q 1728 916 1876 656 
Q 2025 397 2356 397 
Q 2697 397 2836 672 
Q 2975 947 2975 1663 
Q 2975 2378 2836 2651 
Q 2697 2925 2356 2925 
Q 2025 2925 1876 2665 
Q 1728 2406 1728 1825 
L 1728 1497 
z
" transform="scale(0.015625)"/>
     <path id="DejaVuSerif-Bold-3c3" d="M 2138 263 
Q 2488 263 2630 563 
Q 2772 863 2772 1663 
Q 2772 2406 2631 2704 
Q 2491 3003 2137 3003 
Q 1784 3003 1640 2701 
Q 1497 2400 1497 1663 
Q 1497 869 1640 566 
Q 1784 263 2138 263 
z
M 3444 2944 
Q 4013 2481 4013 1662 
Q 4013 844 3514 376 
Q 3016 -91 2137 -91 
Q 1259 -91 761 376 
Q 263 844 263 1663 
Q 263 2394 763 2888 
Q 1197 3322 2138 3322 
L 4388 3322 
L 4388 2944 
L 3444 2944 
z
" transform="scale(0.015625)"/>
     <path id="DejaVuSerif-Bold-3d" d="M 678 1650 
L 4684 1650 
L 4684 941 
L 678 941 
L 678 1650 
z
M 678 3072 
L 4684 3072 
L 4684 2363 
L 678 2363 
L 678 3072 
z
" transform="scale(0.015625)"/>
     <path id="DejaVuSerif-Bold-30" d="M 2228 275 
Q 2603 275 2742 615 
Q 2881 956 2881 2328 
Q 2881 3691 2742 4037 
Q 2603 4384 2228 4384 
Q 1853 4384 1714 4043 
Q 1575 3703 1575 2328 
Q 1575 956 1714 615 
Q 1853 275 2228 275 
z
M 2228 -91 
Q 1294 -91 797 532 
Q 300 1156 300 2328 
Q 300 3500 797 4125 
Q 1294 4750 2228 4750 
Q 3159 4750 3656 4125 
Q 4153 3500 4153 2328 
Q 4153 1156 3656 532 
Q 3159 -91 2228 -91 
z
" transform="scale(0.015625)"/>
     <path id="DejaVuSerif-Bold-2e" d="M 519 506 
Q 519 750 694 925 
Q 869 1100 1113 1100 
Q 1359 1100 1534 925 
Q 1709 750 1709 506 
Q 1709 259 1534 84 
Q 1359 -91 1113 -91 
Q 869 -91 694 84 
Q 519 259 519 506 
z
" transform="scale(0.015625)"/>
     <path id="DejaVuSerif-Bold-35" d="M 3609 4666 
L 3609 3847 
L 1113 3847 
L 1113 2822 
Q 1319 2981 1572 3062 
Q 1825 3144 2106 3144 
Q 2969 3144 3469 2708 
Q 3969 2272 3969 1522 
Q 3969 759 3469 334 
Q 2969 -91 2069 -91 
Q 1688 -91 1311 -28 
Q 934 34 525 166 
L 525 1184 
L 900 1184 
Q 919 725 1139 500 
Q 1359 275 1791 275 
Q 2250 275 2472 583 
Q 2694 891 2694 1522 
Q 2694 2144 2476 2451 
Q 2259 2759 1819 2759 
Q 1581 2759 1395 2661 
Q 1209 2563 1050 2356 
L 738 2356 
L 738 4666 
L 3609 4666 
z
" transform="scale(0.015625)"/>
     <path id="DejaVuSerif-Bold-2c" d="M 84 -616 
Q 409 -353 562 -28 
Q 716 297 716 728 
L 716 997 
L 1606 997 
L 1606 972 
Q 1606 281 1317 -217 
Q 1028 -716 428 -1056 
L 84 -616 
z
" transform="scale(0.015625)"/>
     <path id="DejaVuSerif-Bold-b1" d="M 678 709 
L 4684 709 
L 4684 0 
L 678 0 
L 678 709 
z
M 3041 4013 
L 3041 2894 
L 4684 2894 
L 4684 2181 
L 3041 2181 
L 3041 1063 
L 2322 1063 
L 2322 2181 
L 678 2181 
L 678 2894 
L 2322 2894 
L 2322 4013 
L 3041 4013 
z
" transform="scale(0.015625)"/>
     <path id="DejaVuSerif-Bold-34" d="M 4084 0 
L 1516 0 
L 1516 378 
L 2209 378 
L 2209 1228 
L 263 1228 
L 263 1588 
L 2216 4750 
L 3391 4750 
L 3391 1631 
L 4191 1631 
L 4191 1228 
L 3391 1228 
L 3391 378 
L 4084 378 
L 4084 0 
z
M 2209 1631 
L 2209 3897 
L 819 1631 
L 2209 1631 
z
" transform="scale(0.015625)"/>
     <path id="DejaVuSerif-Bold-d7" d="M 4538 3378 
L 3163 2003 
L 4538 628 
L 4056 147 
L 2681 1522 
L 1306 147 
L 825 628 
L 2203 2003 
L 825 3378 
L 1306 3866 
L 2681 2491 
L 4056 3866 
L 4538 3378 
z
" transform="scale(0.015625)"/>
     <path id="DejaVuSerif-Bold-33" d="M 550 4531 
Q 963 4641 1350 4695 
Q 1738 4750 2106 4750 
Q 2950 4750 3401 4448 
Q 3853 4147 3853 3584 
Q 3853 3163 3593 2900 
Q 3334 2638 2834 2547 
Q 3444 2450 3744 2131 
Q 4044 1813 4044 1259 
Q 4044 606 3526 257 
Q 3009 -91 2028 -91 
Q 1659 -91 1267 -28 
Q 875 34 447 159 
L 447 1184 
L 825 1184 
Q 859 741 1103 508 
Q 1347 275 1778 275 
Q 2253 275 2512 539 
Q 2772 803 2772 1288 
Q 2772 1794 2501 2069 
Q 2231 2344 1734 2344 
L 1528 2344 
L 1528 2719 
L 1691 2719 
Q 2150 2719 2381 2931 
Q 2613 3144 2613 3566 
Q 2613 3963 2395 4173 
Q 2178 4384 1772 4384 
Q 1403 4384 1187 4182 
Q 972 3981 928 3597 
L 550 3597 
L 550 4531 
z
" transform="scale(0.015625)"/>
    </defs>
    <use xlink:href="#DejaVuSerif-Bold-54"/>
    <use xlink:href="#DejaVuSerif-Bold-6f" transform="translate(62.914062 0)"/>
    <use xlink:href="#DejaVuSerif-Bold-6b" transform="translate(129.613281 0)"/>
    <use xlink:href="#DejaVuSerif-Bold-65" transform="translate(198.900391 0)"/>
    <use xlink:href="#DejaVuSerif-Bold-6e" transform="translate(262.523438 0)"/>
    <use xlink:href="#DejaVuSerif-Bold-2d" transform="translate(335.228516 0)"/>
    <use xlink:href="#DejaVuSerif-Bold-73" transform="translate(376.732422 0)"/>
    <use xlink:href="#DejaVuSerif-Bold-70" transform="translate(433.03125 0)"/>
    <use xlink:href="#DejaVuSerif-Bold-61" transform="translate(502.953125 0)"/>
    <use xlink:href="#DejaVuSerif-Bold-63" transform="translate(567.748047 0)"/>
    <use xlink:href="#DejaVuSerif-Bold-65" transform="translate(628.636719 0)"/>
    <use xlink:href="#DejaVuSerif-Bold-20" transform="translate(692.259766 0)"/>
    <use xlink:href="#DejaVuSerif-Bold-64" transform="translate(727.074219 0)"/>
    <use xlink:href="#DejaVuSerif-Bold-69" transform="translate(796.996094 0)"/>
    <use xlink:href="#DejaVuSerif-Bold-73" transform="translate(834.984375 0)"/>
    <use xlink:href="#DejaVuSerif-Bold-74" transform="translate(891.283203 0)"/>
    <use xlink:href="#DejaVuSerif-Bold-61" transform="translate(937.474609 0)"/>
    <use xlink:href="#DejaVuSerif-Bold-6e" transform="translate(1002.269531 0)"/>
    <use xlink:href="#DejaVuSerif-Bold-63" transform="translate(1074.974609 0)"/>
    <use xlink:href="#DejaVuSerif-Bold-65" transform="translate(1135.863281 0)"/>
    <use xlink:href="#DejaVuSerif-Bold-3a" transform="translate(1199.486328 0)"/>
    <use xlink:href="#DejaVuSerif-Bold-20" transform="translate(1236.400391 0)"/>
    <use xlink:href="#DejaVuSerif-Bold-6f" transform="translate(1271.214844 0)"/>
    <use xlink:href="#DejaVuSerif-Bold-72" transform="translate(1337.914062 0)"/>
    <use xlink:href="#DejaVuSerif-Bold-69" transform="translate(1390.599609 0)"/>
    <use xlink:href="#DejaVuSerif-Bold-67" transform="translate(1428.587891 0)"/>
    <use xlink:href="#DejaVuSerif-Bold-69" transform="translate(1498.509766 0)"/>
    <use xlink:href="#DejaVuSerif-Bold-6e" transform="translate(1536.498047 0)"/>
    <use xlink:href="#DejaVuSerif-Bold-61" transform="translate(1609.203125 0)"/>
    <use xlink:href="#DejaVuSerif-Bold-6c" transform="translate(1673.998047 0)"/>
    <use xlink:href="#DejaVuSerif-Bold-20" transform="translate(1711.986328 0)"/>
    <use xlink:href="#DejaVuSerif-Bold-76" transform="translate(1746.800781 0)"/>
    <use xlink:href="#DejaVuSerif-Bold-73" transform="translate(1804.90625 0)"/>
    <use xlink:href="#DejaVuSerif-Bold-20" transform="translate(1861.205078 0)"/>
    <use xlink:href="#DejaVuSerif-Bold-70" transform="translate(1896.019531 0)"/>
    <use xlink:href="#DejaVuSerif-Bold-65" transform="translate(1965.941406 0)"/>
    <use xlink:href="#DejaVuSerif-Bold-72" transform="translate(2029.564453 0)"/>
    <use xlink:href="#DejaVuSerif-Bold-74" transform="translate(2082.25 0)"/>
    <use xlink:href="#DejaVuSerif-Bold-75" transform="translate(2128.441406 0)"/>
    <use xlink:href="#DejaVuSerif-Bold-72" transform="translate(2201.146484 0)"/>
    <use xlink:href="#DejaVuSerif-Bold-62" transform="translate(2253.832031 0)"/>
    <use xlink:href="#DejaVuSerif-Bold-65" transform="translate(2323.753906 0)"/>
    <use xlink:href="#DejaVuSerif-Bold-64" transform="translate(2387.376953 0)"/>
    <use xlink:href="#DejaVuSerif-Bold-20" transform="translate(2457.298828 0)"/>
    <use xlink:href="#DejaVuSerif-Bold-73" transform="translate(2492.113281 0)"/>
    <use xlink:href="#DejaVuSerif-Bold-65" transform="translate(2548.412109 0)"/>
    <use xlink:href="#DejaVuSerif-Bold-72" transform="translate(2612.035156 0)"/>
    <use xlink:href="#DejaVuSerif-Bold-69" transform="translate(2664.720703 0)"/>
    <use xlink:href="#DejaVuSerif-Bold-65" transform="translate(2702.708984 0)"/>
    <use xlink:href="#DejaVuSerif-Bold-73" transform="translate(2766.332031 0)"/>
    <use xlink:href="#DejaVuSerif-Bold-20" transform="translate(2822.630859 0)"/>
    <use xlink:href="#DejaVuSerif-Bold-28" transform="translate(2857.445312 0)"/>
    <use xlink:href="#DejaVuSerif-Bold-3c3" transform="translate(2904.759766 0)"/>
    <use xlink:href="#DejaVuSerif-Bold-20" transform="translate(2978.490234 0)"/>
    <use xlink:href="#DejaVuSerif-Bold-3d" transform="translate(3013.304688 0)"/>
    <use xlink:href="#DejaVuSerif-Bold-20" transform="translate(3097.09375 0)"/>
    <use xlink:href="#DejaVuSerif-Bold-30" transform="translate(3131.908203 0)"/>
    <use xlink:href="#DejaVuSerif-Bold-2e" transform="translate(3201.488281 0)"/>
    <use xlink:href="#DejaVuSerif-Bold-35" transform="translate(3236.302734 0)"/>
    <use xlink:href="#DejaVuSerif-Bold-2c" transform="translate(3305.882812 0)"/>
    <use xlink:href="#DejaVuSerif-Bold-20" transform="translate(3340.697266 0)"/>
    <use xlink:href="#DejaVuSerif-Bold-6d" transform="translate(3375.511719 0)"/>
    <use xlink:href="#DejaVuSerif-Bold-65" transform="translate(3481.322266 0)"/>
    <use xlink:href="#DejaVuSerif-Bold-61" transform="translate(3544.945312 0)"/>
    <use xlink:href="#DejaVuSerif-Bold-6e" transform="translate(3609.740234 0)"/>
    <use xlink:href="#DejaVuSerif-Bold-20" transform="translate(3682.445312 0)"/>
    <use xlink:href="#DejaVuSerif-Bold-b1" transform="translate(3717.259766 0)"/>
    <use xlink:href="#DejaVuSerif-Bold-20" transform="translate(3801.048828 0)"/>
    <use xlink:href="#DejaVuSerif-Bold-73" transform="translate(3835.863281 0)"/>
    <use xlink:href="#DejaVuSerif-Bold-74" transform="translate(3892.162109 0)"/>
    <use xlink:href="#DejaVuSerif-Bold-64" transform="translate(3938.353516 0)"/>
    <use xlink:href="#DejaVuSerif-Bold-20" transform="translate(4008.275391 0)"/>
    <use xlink:href="#DejaVuSerif-Bold-61" transform="translate(4043.089844 0)"/>
    <use xlink:href="#DejaVuSerif-Bold-63" transform="translate(4107.884766 0)"/>
    <use xlink:href="#DejaVuSerif-Bold-72" transform="translate(4168.773438 0)"/>
    <use xlink:href="#DejaVuSerif-Bold-6f" transform="translate(4221.458984 0)"/>
    <use xlink:href="#DejaVuSerif-Bold-73" transform="translate(4288.158203 0)"/>
    <use xlink:href="#DejaVuSerif-Bold-73" transform="translate(4344.457031 0)"/>
    <use xlink:href="#DejaVuSerif-Bold-20" transform="translate(4400.755859 0)"/>
    <use xlink:href="#DejaVuSerif-Bold-34" transform="translate(4435.570312 0)"/>
    <use xlink:href="#DejaVuSerif-Bold-20" transform="translate(4505.150391 0)"/>
    <use xlink:href="#DejaVuSerif-Bold-64" transform="translate(4539.964844 0)"/>
    <use xlink:href="#DejaVuSerif-Bold-61" transform="translate(4609.886719 0)"/>
    <use xlink:href="#DejaVuSerif-Bold-74" transform="translate(4674.681641 0)"/>
    <use xlink:href="#DejaVuSerif-Bold-61" transform="translate(4720.873047 0)"/>
    <use xlink:href="#DejaVuSerif-Bold-73" transform="translate(4785.667969 0)"/>
    <use xlink:href="#DejaVuSerif-Bold-65" transform="translate(4841.966797 0)"/>
    <use xlink:href="#DejaVuSerif-Bold-74" transform="translate(4905.589844 0)"/>
    <use xlink:href="#DejaVuSerif-Bold-73" transform="translate(4951.78125 0)"/>
    <use xlink:href="#DejaVuSerif-Bold-20" transform="translate(5008.080078 0)"/>
    <use xlink:href="#DejaVuSerif-Bold-d7" transform="translate(5042.894531 0)"/>
    <use xlink:href="#DejaVuSerif-Bold-20" transform="translate(5126.683594 0)"/>
    <use xlink:href="#DejaVuSerif-Bold-33" transform="translate(5161.498047 0)"/>
    <use xlink:href="#DejaVuSerif-Bold-20" transform="translate(5231.078125 0)"/>
    <use xlink:href="#DejaVuSerif-Bold-73" transform="translate(5265.892578 0)"/>
    <use xlink:href="#DejaVuSerif-Bold-65" transform="translate(5322.191406 0)"/>
    <use xlink:href="#DejaVuSerif-Bold-65" transform="translate(5385.814453 0)"/>
    <use xlink:href="#DejaVuSerif-Bold-64" transform="translate(5449.4375 0)"/>
    <use xlink:href="#DejaVuSerif-Bold-73" transform="translate(5519.359375 0)"/>
    <use xlink:href="#DejaVuSerif-Bold-29" transform="translate(5575.658203 0)"/>
   </g>
  </g>
 </g>
 <defs>
  <clipPath id="pda834a1a05">
   <rect x="41.53925" y="62.7675" width="453.82" height="284.3525"/>
  </clipPath>
  <clipPath id="p5aa3f13ef4">
   <rect x="538.87925" y="62.7675" width="453.82" height="284.3525"/>
  </clipPath>
 </defs>
</svg>
